<?xml version="1.0" encoding="UTF-8" standalone="no"?>
<!DOCTYPE svg PUBLIC "-//W3C//DTD SVG 1.1//EN"
 "http://www.w3.org/Graphics/SVG/1.1/DTD/svg11.dtd">
<!-- Generated by graphviz version 14.1.2 (20260124.0452)
 -->
<!-- Title: actions.cpp Pages: 1 -->
<svg width="221pt" height="196pt"
 viewBox="0.00 0.00 221.00 196.00" xmlns="http://www.w3.org/2000/svg" xmlns:xlink="http://www.w3.org/1999/xlink">
<g id="graph0" class="graph" transform="scale(1 1) rotate(0) translate(4 192)">
<title>actions.cpp</title>
<!-- Node1 -->
<g id="Node000001" class="node">
<title>Node1</title>
<g id="a_Node000001"><a xlink:title=" ">
<polygon fill="#999999" stroke="#666666" points="97,-188 30.75,-188 30.75,-168 97,-168 97,-188"/>
<text xml:space="preserve" text-anchor="middle" x="63.88" y="-174.5" font-family="Helvetica,sans-Serif" font-size="10.00">actions.cpp</text>
</a>
</g>
</g>
<!-- Node2 -->
<g id="Node000002" class="node">
<title>Node2</title>
<g id="a_Node000002"><a xlink:href="actions_8h.html" target="_top" xlink:title=" ">
<polygon fill="white" stroke="#666666" points="55.75,-132 0,-132 0,-112 55.75,-112 55.75,-132"/>
<text xml:space="preserve" text-anchor="middle" x="27.88" y="-118.5" font-family="Helvetica,sans-Serif" font-size="10.00">actions.h</text>
</a>
</g>
</g>
<!-- Node1&#45;&gt;Node2 -->
<g id="edge1_Node000001_Node000002" class="edge">
<title>Node1&#45;&gt;Node2</title>
<g id="a_edge1_Node000001_Node000002"><a xlink:title=" ">
<path fill="none" stroke="#63b8ff" d="M57.6,-167.59C52.86,-160.47 46.18,-150.45 40.35,-141.72"/>
<polygon fill="#63b8ff" stroke="#63b8ff" points="43.37,-139.94 34.91,-133.56 37.55,-143.82 43.37,-139.94"/>
</a>
</g>
</g>
<!-- Node3 -->
<g id="Node000003" class="node">
<title>Node3</title>
<g id="a_Node000003"><a xlink:href="control_8h.html" target="_top" xlink:title="Control Logic subsystem interface for the Smart Garage Controller.">
<polygon fill="white" stroke="#666666" points="127.62,-132 74.12,-132 74.12,-112 127.62,-112 127.62,-132"/>
<text xml:space="preserve" text-anchor="middle" x="100.88" y="-118.5" font-family="Helvetica,sans-Serif" font-size="10.00">control.h</text>
</a>
</g>
</g>
<!-- Node1&#45;&gt;Node3 -->
<g id="edge2_Node000001_Node000003" class="edge">
<title>Node1&#45;&gt;Node3</title>
<g id="a_edge2_Node000001_Node000003"><a xlink:title=" ">
<path fill="none" stroke="#63b8ff" d="M70.32,-167.59C75.2,-160.47 82.07,-150.45 88.05,-141.72"/>
<polygon fill="#63b8ff" stroke="#63b8ff" points="90.88,-143.77 93.65,-133.55 85.11,-139.82 90.88,-143.77"/>
</a>
</g>
</g>
<!-- Node4 -->
<g id="Node000004" class="node">
<title>Node4</title>
<g id="a_Node000004"><a xlink:title=" ">
<polygon fill="#e0e0e0" stroke="#999999" points="125,-20 76.75,-20 76.75,0 125,0 125,-20"/>
<text xml:space="preserve" text-anchor="middle" x="100.88" y="-6.5" font-family="Helvetica,sans-Serif" font-size="10.00">stdint.h</text>
</a>
</g>
</g>
<!-- Node3&#45;&gt;Node4 -->
<g id="edge3_Node000003_Node000004" class="edge">
<title>Node3&#45;&gt;Node4</title>
<g id="a_edge3_Node000003_Node000004"><a xlink:title=" ">
<path fill="none" stroke="#63b8ff" d="M89.27,-111.84C75.43,-99.71 55.06,-77.36 62.88,-56 66.66,-45.65 74,-36.03 81.22,-28.37"/>
<polygon fill="#63b8ff" stroke="#63b8ff" points="83.65,-30.9 88.35,-21.41 78.75,-25.89 83.65,-30.9"/>
</a>
</g>
</g>
<!-- Node5 -->
<g id="Node000005" class="node">
<title>Node5</title>
<g id="a_Node000005"><a xlink:href="sensors_8h.html" target="_top" xlink:title="Sensor subsystem interface for the Smart Garage Controller.">
<polygon fill="white" stroke="#666666" points="130.25,-76 71.5,-76 71.5,-56 130.25,-56 130.25,-76"/>
<text xml:space="preserve" text-anchor="middle" x="100.88" y="-62.5" font-family="Helvetica,sans-Serif" font-size="10.00">sensors.h</text>
</a>
</g>
</g>
<!-- Node3&#45;&gt;Node5 -->
<g id="edge4_Node000003_Node000005" class="edge">
<title>Node3&#45;&gt;Node5</title>
<g id="a_edge4_Node000003_Node000005"><a xlink:title=" ">
<path fill="none" stroke="#63b8ff" d="M100.88,-111.59C100.88,-105.01 100.88,-95.96 100.88,-87.73"/>
<polygon fill="#63b8ff" stroke="#63b8ff" points="104.38,-87.81 100.88,-77.81 97.38,-87.81 104.38,-87.81"/>
</a>
</g>
</g>
<!-- Node6 -->
<g id="Node000006" class="node">
<title>Node6</title>
<g id="a_Node000006"><a xlink:href="actuators_8h.html" target="_top" xlink:title="Actuator subsystem interface for the Smart Garage Controller.">
<polygon fill="white" stroke="#666666" points="213.25,-76 148.5,-76 148.5,-56 213.25,-56 213.25,-76"/>
<text xml:space="preserve" text-anchor="middle" x="180.88" y="-62.5" font-family="Helvetica,sans-Serif" font-size="10.00">actuators.h</text>
</a>
</g>
</g>
<!-- Node3&#45;&gt;Node6 -->
<g id="edge6_Node000003_Node000006" class="edge">
<title>Node3&#45;&gt;Node6</title>
<g id="a_edge6_Node000003_Node000006"><a xlink:title=" ">
<path fill="none" stroke="#63b8ff" d="M114.81,-111.59C126.55,-103.67 143.61,-92.16 157.44,-82.82"/>
<polygon fill="#63b8ff" stroke="#63b8ff" points="159.25,-85.82 165.58,-77.33 155.33,-80.02 159.25,-85.82"/>
</a>
</g>
</g>
<!-- Node5&#45;&gt;Node4 -->
<g id="edge5_Node000005_Node000004" class="edge">
<title>Node5&#45;&gt;Node4</title>
<g id="a_edge5_Node000005_Node000004"><a xlink:title=" ">
<path fill="none" stroke="#63b8ff" d="M100.88,-55.59C100.88,-49.01 100.88,-39.96 100.88,-31.73"/>
<polygon fill="#63b8ff" stroke="#63b8ff" points="104.38,-31.81 100.88,-21.81 97.38,-31.81 104.38,-31.81"/>
</a>
</g>
</g>
<!-- Node6&#45;&gt;Node4 -->
<g id="edge7_Node000006_Node000004" class="edge">
<title>Node6&#45;&gt;Node4</title>
<g id="a_edge7_Node000006_Node000004"><a xlink:title=" ">
<path fill="none" stroke="#63b8ff" d="M166.94,-55.59C155.2,-47.67 138.14,-36.16 124.31,-26.82"/>
<polygon fill="#63b8ff" stroke="#63b8ff" points="126.42,-24.02 116.17,-21.33 122.5,-29.82 126.42,-24.02"/>
</a>
</g>
</g>
</g>
</svg>
