<?xml version="1.0" encoding="UTF-8" standalone="no"?>
<!DOCTYPE svg PUBLIC "-//W3C//DTD SVG 1.1//EN"
 "http://www.w3.org/Graphics/SVG/1.1/DTD/svg11.dtd">
<!-- Generated by graphviz version 14.1.2 (20260124.0452)
 -->
<!-- Title: actuators.cpp Pages: 1 -->
<svg width="148pt" height="140pt"
 viewBox="0.00 0.00 148.00 140.00" xmlns="http://www.w3.org/2000/svg" xmlns:xlink="http://www.w3.org/1999/xlink">
<g id="graph0" class="graph" transform="scale(1 1) rotate(0) translate(4 136)">
<title>actuators.cpp</title>
<!-- Node1 -->
<g id="Node000001" class="node">
<title>Node1</title>
<g id="a_Node000001"><a xlink:title="Implementation of the Actuators subsystem.">
<polygon fill="#999999" stroke="#666666" points="109,-132 33.75,-132 33.75,-112 109,-112 109,-132"/>
<text xml:space="preserve" text-anchor="middle" x="71.38" y="-118.5" font-family="Helvetica,sans-Serif" font-size="10.00">actuators.cpp</text>
</a>
</g>
</g>
<!-- Node2 -->
<g id="Node000002" class="node">
<title>Node2</title>
<g id="a_Node000002"><a xlink:href="actuators_8h.html" target="_top" xlink:title="Actuator subsystem interface for the Smart Garage Controller.">
<polygon fill="white" stroke="#666666" points="64.75,-76 0,-76 0,-56 64.75,-56 64.75,-76"/>
<text xml:space="preserve" text-anchor="middle" x="32.38" y="-62.5" font-family="Helvetica,sans-Serif" font-size="10.00">actuators.h</text>
</a>
</g>
</g>
<!-- Node1&#45;&gt;Node2 -->
<g id="edge1_Node000001_Node000002" class="edge">
<title>Node1&#45;&gt;Node2</title>
<g id="a_edge1_Node000001_Node000002"><a xlink:title=" ">
<path fill="none" stroke="#63b8ff" d="M64.58,-111.59C59.38,-104.39 52.04,-94.23 45.69,-85.43"/>
<polygon fill="#63b8ff" stroke="#63b8ff" points="48.67,-83.58 39.98,-77.53 42.99,-87.68 48.67,-83.58"/>
</a>
</g>
</g>
<!-- Node4 -->
<g id="Node000004" class="node">
<title>Node4</title>
<g id="a_Node000004"><a xlink:title=" ">
<polygon fill="#e0e0e0" stroke="#999999" points="140,-76 82.75,-76 82.75,-56 140,-56 140,-76"/>
<text xml:space="preserve" text-anchor="middle" x="111.38" y="-62.5" font-family="Helvetica,sans-Serif" font-size="10.00">Arduino.h</text>
</a>
</g>
</g>
<!-- Node1&#45;&gt;Node4 -->
<g id="edge3_Node000001_Node000004" class="edge">
<title>Node1&#45;&gt;Node4</title>
<g id="a_edge3_Node000001_Node000004"><a xlink:title=" ">
<path fill="none" stroke="#63b8ff" d="M78.34,-111.59C83.68,-104.39 91.2,-94.23 97.72,-85.43"/>
<polygon fill="#63b8ff" stroke="#63b8ff" points="100.45,-87.63 103.59,-77.51 94.82,-83.47 100.45,-87.63"/>
</a>
</g>
</g>
<!-- Node3 -->
<g id="Node000003" class="node">
<title>Node3</title>
<g id="a_Node000003"><a xlink:title=" ">
<polygon fill="#e0e0e0" stroke="#999999" points="56.5,-20 8.25,-20 8.25,0 56.5,0 56.5,-20"/>
<text xml:space="preserve" text-anchor="middle" x="32.38" y="-6.5" font-family="Helvetica,sans-Serif" font-size="10.00">stdint.h</text>
</a>
</g>
</g>
<!-- Node2&#45;&gt;Node3 -->
<g id="edge2_Node000002_Node000003" class="edge">
<title>Node2&#45;&gt;Node3</title>
<g id="a_edge2_Node000002_Node000003"><a xlink:title=" ">
<path fill="none" stroke="#63b8ff" d="M32.38,-55.59C32.38,-49.01 32.38,-39.96 32.38,-31.73"/>
<polygon fill="#63b8ff" stroke="#63b8ff" points="35.88,-31.81 32.38,-21.81 28.88,-31.81 35.88,-31.81"/>
</a>
</g>
</g>
</g>
</svg>
