<?xml version="1.0" encoding="UTF-8" standalone="no"?>
<!DOCTYPE svg PUBLIC "-//W3C//DTD SVG 1.1//EN"
 "http://www.w3.org/Graphics/SVG/1.1/DTD/svg11.dtd">
<!-- Generated by graphviz version 14.1.2 (20260124.0452)
 -->
<!-- Title: heaterAllowed Pages: 1 -->
<svg width="309pt" height="28pt"
 viewBox="0.00 0.00 309.00 28.00" xmlns="http://www.w3.org/2000/svg" xmlns:xlink="http://www.w3.org/1999/xlink">
<g id="graph0" class="graph" transform="scale(1 1) rotate(0) translate(4 24)">
<title>heaterAllowed</title>
<!-- Node1 -->
<g id="Node000001" class="node">
<title>Node1</title>
<g id="a_Node000001"><a xlink:title="Determines whether heater operation is allowed.">
<polygon fill="#999999" stroke="#666666" points="300.75,-20 223.25,-20 223.25,0 300.75,0 300.75,-20"/>
<text xml:space="preserve" text-anchor="middle" x="262" y="-6.5" font-family="Helvetica,sans-Serif" font-size="10.00">heaterAllowed</text>
</a>
</g>
</g>
<!-- Node2 -->
<g id="Node000002" class="node">
<title>Node2</title>
<g id="a_Node000002"><a xlink:href="control_8cpp.html#ad960933e24b9fd6ac00287d663af03e2" target="_top" xlink:title="Updates heater ON/OFF state using hysteresis.">
<polygon fill="white" stroke="#666666" points="187.25,-20 112.75,-20 112.75,0 187.25,0 187.25,-20"/>
<text xml:space="preserve" text-anchor="middle" x="150" y="-6.5" font-family="Helvetica,sans-Serif" font-size="10.00">updateHeater</text>
</a>
</g>
</g>
<!-- Node1&#45;&gt;Node2 -->
<g id="edge1_Node000001_Node000002" class="edge">
<title>Node1&#45;&gt;Node2</title>
<g id="a_edge1_Node000001_Node000002"><a xlink:title=" ">
<path fill="none" stroke="#63b8ff" d="M211.33,-10C203.35,-10 195.22,-10 187.61,-10"/>
<polygon fill="#63b8ff" stroke="#63b8ff" points="211.32,-13.5 221.32,-10 211.32,-6.5 211.32,-13.5"/>
</a>
</g>
</g>
<!-- Node3 -->
<g id="Node000003" class="node">
<title>Node3</title>
<g id="a_Node000003"><a xlink:href="group___control.html#ga7cd7036a6c0c2068a52b40e6e1105e45" target="_top" xlink:title="Updates internal logic based on sensor readings.">
<polygon fill="white" stroke="#666666" points="76.75,-20 0,-20 0,0 76.75,0 76.75,-20"/>
<text xml:space="preserve" text-anchor="middle" x="38.38" y="-6.5" font-family="Helvetica,sans-Serif" font-size="10.00">controlUpdate</text>
</a>
</g>
</g>
<!-- Node2&#45;&gt;Node3 -->
<g id="edge2_Node000002_Node000003" class="edge">
<title>Node2&#45;&gt;Node3</title>
<g id="a_edge2_Node000002_Node000003"><a xlink:title=" ">
<path fill="none" stroke="#63b8ff" d="M101.04,-10C93.06,-10 84.9,-10 77.22,-10"/>
<polygon fill="#63b8ff" stroke="#63b8ff" points="100.98,-13.5 110.98,-10 100.98,-6.5 100.98,-13.5"/>
</a>
</g>
</g>
</g>
</svg>
