<?xml version="1.0" encoding="UTF-8" standalone="no"?>
<!DOCTYPE svg PUBLIC "-//W3C//DTD SVG 1.1//EN"
 "http://www.w3.org/Graphics/SVG/1.1/DTD/svg11.dtd">
<!-- Generated by graphviz version 14.1.2 (20260124.0452)
 -->
<!-- Title: control.cpp Pages: 1 -->
<svg width="161pt" height="196pt"
 viewBox="0.00 0.00 161.00 196.00" xmlns="http://www.w3.org/2000/svg" xmlns:xlink="http://www.w3.org/1999/xlink">

<svg id="main" version="1.1" xmlns="http://www.w3.org/2000/svg" xmlns:xlink="http://www.w3.org/1999/xlink" xml:space="preserve">

<style type="text/css"><![CDATA[
.node, .edge {opacity: 0.7;}
.node.selected, .edge.selected {opacity: 1;}
.edge:hover path { stroke: red; }
.edge:hover polygon { stroke: red; fill: red; }
]]></style>
<script type="application/ecmascript" xlink:href="svg.min.js"/>
<svg id="graph" class="graph">
<g id="graph0" class="graph" transform="scale(1 1) rotate(0) translate(4 192)">
<title>control.cpp</title>
<!-- Node1 -->
<g id="Node000001" class="node">
<title>Node1</title>
<g id="a_Node000001"><a xlink:title="Implementation of the Control Logic subsystem.">
<polygon fill="#999999" stroke="#666666" points="108.15,-188 44.15,-188 44.15,-168 108.15,-168 108.15,-188"/>
<text xml:space="preserve" text-anchor="middle" x="76.15" y="-174.5" font-family="Helvetica,sans-Serif" font-size="10.00">control.cpp</text>
</a>
</g>
</g>
<!-- Node2 -->
<g id="Node000002" class="node">
<title>Node2</title>
<g id="a_Node000002"><a xlink:href="control_8h.html" target="_top" xlink:title="Control Logic subsystem interface for the Smart Garage Controller.">
<polygon fill="white" stroke="#666666" points="66.9,-132 13.4,-132 13.4,-112 66.9,-112 66.9,-132"/>
<text xml:space="preserve" text-anchor="middle" x="40.15" y="-118.5" font-family="Helvetica,sans-Serif" font-size="10.00">control.h</text>
</a>
</g>
</g>
<!-- Node1&#45;&gt;Node2 -->
<g id="edge1_Node000001_Node000002" class="edge">
<title>Node1&#45;&gt;Node2</title>
<g id="a_edge1_Node000001_Node000002"><a xlink:title=" ">
<path fill="none" stroke="#63b8ff" d="M69.87,-167.59C65.13,-160.47 58.45,-150.45 52.62,-141.72"/>
<polygon fill="#63b8ff" stroke="#63b8ff" points="55.64,-139.94 47.18,-133.56 49.82,-143.82 55.64,-139.94"/>
</a>
</g>
</g>
<!-- Node6 -->
<g id="Node000006" class="node">
<title>Node6</title>
<g id="a_Node000006"><a xlink:title=" ">
<polygon fill="#e0e0e0" stroke="#999999" points="141.77,-132 84.52,-132 84.52,-112 141.77,-112 141.77,-132"/>
<text xml:space="preserve" text-anchor="middle" x="113.15" y="-118.5" font-family="Helvetica,sans-Serif" font-size="10.00">Arduino.h</text>
</a>
</g>
</g>
<!-- Node1&#45;&gt;Node6 -->
<g id="edge7_Node000001_Node000006" class="edge">
<title>Node1&#45;&gt;Node6</title>
<g id="a_edge7_Node000001_Node000006"><a xlink:title=" ">
<path fill="none" stroke="#63b8ff" d="M82.59,-167.59C87.47,-160.47 94.34,-150.45 100.32,-141.72"/>
<polygon fill="#63b8ff" stroke="#63b8ff" points="103.15,-143.77 105.92,-133.55 97.38,-139.82 103.15,-143.77"/>
</a>
</g>
</g>
<!-- Node3 -->
<g id="Node000003" class="node">
<title>Node3</title>
<g id="a_Node000003"><a xlink:title=" ">
<polygon fill="#e0e0e0" stroke="#999999" points="64.27,-20 16.02,-20 16.02,0 64.27,0 64.27,-20"/>
<text xml:space="preserve" text-anchor="middle" x="40.15" y="-6.5" font-family="Helvetica,sans-Serif" font-size="10.00">stdint.h</text>
</a>
</g>
</g>
<!-- Node2&#45;&gt;Node3 -->
<g id="edge2_Node000002_Node000003" class="edge">
<title>Node2&#45;&gt;Node3</title>
<g id="a_edge2_Node000002_Node000003"><a xlink:title=" ">
<path fill="none" stroke="#63b8ff" d="M28.54,-111.84C14.7,-99.71 -5.67,-77.36 2.15,-56 5.93,-45.65 13.27,-36.03 20.49,-28.37"/>
<polygon fill="#63b8ff" stroke="#63b8ff" points="22.92,-30.9 27.62,-21.41 18.02,-25.89 22.92,-30.9"/>
</a>
</g>
</g>
<!-- Node4 -->
<g id="Node000004" class="node">
<title>Node4</title>
<g id="a_Node000004"><a xlink:href="sensors_8h.html" target="_top" xlink:title="Sensor subsystem interface for the Smart Garage Controller.">
<polygon fill="white" stroke="#666666" points="69.52,-76 10.77,-76 10.77,-56 69.52,-56 69.52,-76"/>
<text xml:space="preserve" text-anchor="middle" x="40.15" y="-62.5" font-family="Helvetica,sans-Serif" font-size="10.00">sensors.h</text>
</a>
</g>
</g>
<!-- Node2&#45;&gt;Node4 -->
<g id="edge3_Node000002_Node000004" class="edge">
<title>Node2&#45;&gt;Node4</title>
<g id="a_edge3_Node000002_Node000004"><a xlink:title=" ">
<path fill="none" stroke="#63b8ff" d="M40.15,-111.59C40.15,-105.01 40.15,-95.96 40.15,-87.73"/>
<polygon fill="#63b8ff" stroke="#63b8ff" points="43.65,-87.81 40.15,-77.81 36.65,-87.81 43.65,-87.81"/>
</a>
</g>
</g>
<!-- Node5 -->
<g id="Node000005" class="node">
<title>Node5</title>
<g id="a_Node000005"><a xlink:href="actuators_8h.html" target="_top" xlink:title="Actuator subsystem interface for the Smart Garage Controller.">
<polygon fill="white" stroke="#666666" points="152.52,-76 87.77,-76 87.77,-56 152.52,-56 152.52,-76"/>
<text xml:space="preserve" text-anchor="middle" x="120.15" y="-62.5" font-family="Helvetica,sans-Serif" font-size="10.00">actuators.h</text>
</a>
</g>
</g>
<!-- Node2&#45;&gt;Node5 -->
<g id="edge5_Node000002_Node000005" class="edge">
<title>Node2&#45;&gt;Node5</title>
<g id="a_edge5_Node000002_Node000005"><a xlink:title=" ">
<path fill="none" stroke="#63b8ff" d="M54.08,-111.59C65.82,-103.67 82.88,-92.16 96.71,-82.82"/>
<polygon fill="#63b8ff" stroke="#63b8ff" points="98.52,-85.82 104.85,-77.33 94.6,-80.02 98.52,-85.82"/>
</a>
</g>
</g>
<!-- Node4&#45;&gt;Node3 -->
<g id="edge4_Node000004_Node000003" class="edge">
<title>Node4&#45;&gt;Node3</title>
<g id="a_edge4_Node000004_Node000003"><a xlink:title=" ">
<path fill="none" stroke="#63b8ff" d="M40.15,-55.59C40.15,-49.01 40.15,-39.96 40.15,-31.73"/>
<polygon fill="#63b8ff" stroke="#63b8ff" points="43.65,-31.81 40.15,-21.81 36.65,-31.81 43.65,-31.81"/>
</a>
</g>
</g>
<!-- Node5&#45;&gt;Node3 -->
<g id="edge6_Node000005_Node000003" class="edge">
<title>Node5&#45;&gt;Node3</title>
<g id="a_edge6_Node000005_Node000003"><a xlink:title=" ">
<path fill="none" stroke="#63b8ff" d="M106.21,-55.59C94.47,-47.67 77.41,-36.16 63.58,-26.82"/>
<polygon fill="#63b8ff" stroke="#63b8ff" points="65.69,-24.02 55.44,-21.33 61.77,-29.82 65.69,-24.02"/>
</a>
</g>
</g>
</g>
</svg>
</svg>

<style type='text/css'>
<![CDATA[
[data-mouse-over-selected='false'] { opacity: 0.7; }
[data-mouse-over-selected='true']  { opacity: 1.0; }
]]>
</style>
<script type="application/ecmascript"><![CDATA[
document.addEventListener('DOMContentLoaded', (event) => {
  highlightEdges();
  highlightAdjacentNodes();
});
]]></script>
</svg>
