<?xml version="1.0" encoding="UTF-8" standalone="no"?>
<!DOCTYPE svg PUBLIC "-//W3C//DTD SVG 1.1//EN"
 "http://www.w3.org/Graphics/SVG/1.1/DTD/svg11.dtd">
<!-- Generated by graphviz version 14.1.2 (20260124.0452)
 -->
<!-- Title: control.h Pages: 1 -->
<svg width="161pt" height="140pt"
 viewBox="0.00 0.00 161.00 140.00" xmlns="http://www.w3.org/2000/svg" xmlns:xlink="http://www.w3.org/1999/xlink">
<g id="graph0" class="graph" transform="scale(1 1) rotate(0) translate(4 136)">
<title>control.h</title>
<!-- Node1 -->
<g id="Node000001" class="node">
<title>Node1</title>
<g id="a_Node000001"><a xlink:title="Control Logic subsystem interface for the Smart Garage Controller.">
<polygon fill="#999999" stroke="#666666" points="66.9,-132 13.4,-132 13.4,-112 66.9,-112 66.9,-132"/>
<text xml:space="preserve" text-anchor="middle" x="40.15" y="-118.5" font-family="Helvetica,sans-Serif" font-size="10.00">control.h</text>
</a>
</g>
</g>
<!-- Node2 -->
<g id="Node000002" class="node">
<title>Node2</title>
<g id="a_Node000002"><a xlink:title=" ">
<polygon fill="#e0e0e0" stroke="#999999" points="64.27,-20 16.02,-20 16.02,0 64.27,0 64.27,-20"/>
<text xml:space="preserve" text-anchor="middle" x="40.15" y="-6.5" font-family="Helvetica,sans-Serif" font-size="10.00">stdint.h</text>
</a>
</g>
</g>
<!-- Node1&#45;&gt;Node2 -->
<g id="edge1_Node000001_Node000002" class="edge">
<title>Node1&#45;&gt;Node2</title>
<g id="a_edge1_Node000001_Node000002"><a xlink:title=" ">
<path fill="none" stroke="#63b8ff" d="M28.54,-111.84C14.7,-99.71 -5.67,-77.36 2.15,-56 5.93,-45.65 13.27,-36.03 20.49,-28.37"/>
<polygon fill="#63b8ff" stroke="#63b8ff" points="22.92,-30.9 27.62,-21.41 18.02,-25.89 22.92,-30.9"/>
</a>
</g>
</g>
<!-- Node3 -->
<g id="Node000003" class="node">
<title>Node3</title>
<g id="a_Node000003"><a xlink:href="sensors_8h.html" target="_top" xlink:title="Sensor subsystem interface for the Smart Garage Controller.">
<polygon fill="white" stroke="#666666" points="69.52,-76 10.77,-76 10.77,-56 69.52,-56 69.52,-76"/>
<text xml:space="preserve" text-anchor="middle" x="40.15" y="-62.5" font-family="Helvetica,sans-Serif" font-size="10.00">sensors.h</text>
</a>
</g>
</g>
<!-- Node1&#45;&gt;Node3 -->
<g id="edge2_Node000001_Node000003" class="edge">
<title>Node1&#45;&gt;Node3</title>
<g id="a_edge2_Node000001_Node000003"><a xlink:title=" ">
<path fill="none" stroke="#63b8ff" d="M40.15,-111.59C40.15,-105.01 40.15,-95.96 40.15,-87.73"/>
<polygon fill="#63b8ff" stroke="#63b8ff" points="43.65,-87.81 40.15,-77.81 36.65,-87.81 43.65,-87.81"/>
</a>
</g>
</g>
<!-- Node4 -->
<g id="Node000004" class="node">
<title>Node4</title>
<g id="a_Node000004"><a xlink:href="actuators_8h.html" target="_top" xlink:title="Actuator subsystem interface for the Smart Garage Controller.">
<polygon fill="white" stroke="#666666" points="152.52,-76 87.77,-76 87.77,-56 152.52,-56 152.52,-76"/>
<text xml:space="preserve" text-anchor="middle" x="120.15" y="-62.5" font-family="Helvetica,sans-Serif" font-size="10.00">actuators.h</text>
</a>
</g>
</g>
<!-- Node1&#45;&gt;Node4 -->
<g id="edge4_Node000001_Node000004" class="edge">
<title>Node1&#45;&gt;Node4</title>
<g id="a_edge4_Node000001_Node000004"><a xlink:title=" ">
<path fill="none" stroke="#63b8ff" d="M54.08,-111.59C65.82,-103.67 82.88,-92.16 96.71,-82.82"/>
<polygon fill="#63b8ff" stroke="#63b8ff" points="98.52,-85.82 104.85,-77.33 94.6,-80.02 98.52,-85.82"/>
</a>
</g>
</g>
<!-- Node3&#45;&gt;Node2 -->
<g id="edge3_Node000003_Node000002" class="edge">
<title>Node3&#45;&gt;Node2</title>
<g id="a_edge3_Node000003_Node000002"><a xlink:title=" ">
<path fill="none" stroke="#63b8ff" d="M40.15,-55.59C40.15,-49.01 40.15,-39.96 40.15,-31.73"/>
<polygon fill="#63b8ff" stroke="#63b8ff" points="43.65,-31.81 40.15,-21.81 36.65,-31.81 43.65,-31.81"/>
</a>
</g>
</g>
<!-- Node4&#45;&gt;Node2 -->
<g id="edge5_Node000004_Node000002" class="edge">
<title>Node4&#45;&gt;Node2</title>
<g id="a_edge5_Node000004_Node000002"><a xlink:title=" ">
<path fill="none" stroke="#63b8ff" d="M106.21,-55.59C94.47,-47.67 77.41,-36.16 63.58,-26.82"/>
<polygon fill="#63b8ff" stroke="#63b8ff" points="65.69,-24.02 55.44,-21.33 61.77,-29.82 65.69,-24.02"/>
</a>
</g>
</g>
</g>
</svg>
