<?xml version="1.0" encoding="UTF-8" standalone="no"?>
<!DOCTYPE svg PUBLIC "-//W3C//DTD SVG 1.1//EN"
 "http://www.w3.org/Graphics/SVG/1.1/DTD/svg11.dtd">
<!-- Generated by graphviz version 14.1.2 (20260124.0452)
 -->
<!-- Title: control.h Pages: 1 -->
<svg width="356pt" height="84pt"
 viewBox="0.00 0.00 356.00 84.00" xmlns="http://www.w3.org/2000/svg" xmlns:xlink="http://www.w3.org/1999/xlink">
<g id="graph0" class="graph" transform="scale(1 1) rotate(0) translate(4 80)">
<title>control.h</title>
<!-- Node1 -->
<g id="Node000001" class="node">
<title>Node1</title>
<g id="a_Node000001"><a xlink:title="Control Logic subsystem interface for the Smart Garage Controller.">
<polygon fill="#999999" stroke="#666666" points="181.88,-76 128.38,-76 128.38,-56 181.88,-56 181.88,-76"/>
<text xml:space="preserve" text-anchor="middle" x="155.12" y="-62.5" font-family="Helvetica,sans-Serif" font-size="10.00">control.h</text>
</a>
</g>
</g>
<!-- Node2 -->
<g id="Node000002" class="node">
<title>Node2</title>
<g id="a_Node000002"><a xlink:href="actions_8cpp.html" target="_top" xlink:title=" ">
<polygon fill="white" stroke="#666666" points="66.25,-20 0,-20 0,0 66.25,0 66.25,-20"/>
<text xml:space="preserve" text-anchor="middle" x="33.12" y="-6.5" font-family="Helvetica,sans-Serif" font-size="10.00">actions.cpp</text>
</a>
</g>
</g>
<!-- Node1&#45;&gt;Node2 -->
<g id="edge1_Node000001_Node000002" class="edge">
<title>Node1&#45;&gt;Node2</title>
<g id="a_edge1_Node000001_Node000002"><a xlink:title=" ">
<path fill="none" stroke="#63b8ff" d="M123.52,-51.01C101.83,-41.41 73.63,-28.93 54.54,-20.48"/>
<polygon fill="#63b8ff" stroke="#63b8ff" points="121.93,-54.13 132.49,-54.98 124.76,-47.73 121.93,-54.13"/>
</a>
</g>
</g>
<!-- Node3 -->
<g id="Node000003" class="node">
<title>Node3</title>
<g id="a_Node000003"><a xlink:href="control_8cpp.html" target="_top" xlink:title="Implementation of the Control Logic subsystem.">
<polygon fill="white" stroke="#666666" points="148.12,-20 84.12,-20 84.12,0 148.12,0 148.12,-20"/>
<text xml:space="preserve" text-anchor="middle" x="116.12" y="-6.5" font-family="Helvetica,sans-Serif" font-size="10.00">control.cpp</text>
</a>
</g>
</g>
<!-- Node1&#45;&gt;Node3 -->
<g id="edge2_Node000001_Node000003" class="edge">
<title>Node1&#45;&gt;Node3</title>
<g id="a_edge2_Node000001_Node000003"><a xlink:title=" ">
<path fill="none" stroke="#63b8ff" d="M141.72,-46.44C135.35,-37.62 128.02,-27.47 122.84,-20.3"/>
<polygon fill="#63b8ff" stroke="#63b8ff" points="138.75,-48.31 147.45,-54.37 144.43,-44.21 138.75,-48.31"/>
</a>
</g>
</g>
<!-- Node4 -->
<g id="Node000004" class="node">
<title>Node4</title>
<g id="a_Node000004"><a xlink:href="menu_8cpp.html" target="_top" xlink:title=" ">
<polygon fill="white" stroke="#666666" points="224.5,-20 165.75,-20 165.75,0 224.5,0 224.5,-20"/>
<text xml:space="preserve" text-anchor="middle" x="195.12" y="-6.5" font-family="Helvetica,sans-Serif" font-size="10.00">menu.cpp</text>
</a>
</g>
</g>
<!-- Node1&#45;&gt;Node4 -->
<g id="edge3_Node000001_Node000004" class="edge">
<title>Node1&#45;&gt;Node4</title>
<g id="a_edge3_Node000001_Node000004"><a xlink:title=" ">
<path fill="none" stroke="#63b8ff" d="M168.88,-46.44C175.41,-37.62 182.93,-27.47 188.24,-20.3"/>
<polygon fill="#63b8ff" stroke="#63b8ff" points="166.13,-44.26 162.99,-54.38 171.76,-48.43 166.13,-44.26"/>
</a>
</g>
</g>
<!-- Node5 -->
<g id="Node000005" class="node">
<title>Node5</title>
<g id="a_Node000005"><a xlink:href="menu__callbacks_8cpp.html" target="_top" xlink:title="Menu action handlers for the Smart Garage Controller UI.">
<polygon fill="white" stroke="#666666" points="347.75,-20 242.5,-20 242.5,0 347.75,0 347.75,-20"/>
<text xml:space="preserve" text-anchor="middle" x="295.12" y="-6.5" font-family="Helvetica,sans-Serif" font-size="10.00">menu_callbacks.cpp</text>
</a>
</g>
</g>
<!-- Node1&#45;&gt;Node5 -->
<g id="edge4_Node000001_Node000005" class="edge">
<title>Node1&#45;&gt;Node5</title>
<g id="a_edge4_Node000001_Node000005"><a xlink:title=" ">
<path fill="none" stroke="#63b8ff" d="M190.04,-51.53C215.1,-41.87 248.24,-29.08 270.55,-20.48"/>
<polygon fill="#63b8ff" stroke="#63b8ff" points="188.99,-48.18 180.92,-55.05 191.51,-54.72 188.99,-48.18"/>
</a>
</g>
</g>
</g>
</svg>
