<?xml version="1.0" encoding="UTF-8" standalone="no"?>
<!DOCTYPE svg PUBLIC "-//W3C//DTD SVG 1.1//EN"
 "http://www.w3.org/Graphics/SVG/1.1/DTD/svg11.dtd">
<!-- Generated by graphviz version 14.1.2 (20260124.0452)
 -->
<!-- Title: menusRender Pages: 1 -->
<svg width="356pt" height="123pt"
 viewBox="0.00 0.00 356.00 123.00" xmlns="http://www.w3.org/2000/svg" xmlns:xlink="http://www.w3.org/1999/xlink">

<svg id="main" version="1.1" xmlns="http://www.w3.org/2000/svg" xmlns:xlink="http://www.w3.org/1999/xlink" xml:space="preserve">

<style type="text/css"><![CDATA[
.node, .edge {opacity: 0.7;}
.node.selected, .edge.selected {opacity: 1;}
.edge:hover path { stroke: red; }
.edge:hover polygon { stroke: red; fill: red; }
]]></style>
<script type="application/ecmascript" xlink:href="svg.min.js"/>
<svg id="graph" class="graph">
<g id="graph0" class="graph" transform="scale(1 1) rotate(0) translate(4 119)">
<title>menusRender</title>
<!-- Node1 -->
<g id="Node000001" class="node">
<title>Node1</title>
<g id="a_Node000001"><a xlink:title="Renders the appropriate screen based on UI state.">
<polygon fill="#999999" stroke="#666666" points="76.75,-77 0,-77 0,-57 76.75,-57 76.75,-77"/>
<text xml:space="preserve" text-anchor="middle" x="38.38" y="-63.5" font-family="Helvetica,sans-Serif" font-size="10.00">menusRender</text>
</a>
</g>
</g>
<!-- Node2 -->
<g id="Node000002" class="node">
<title>Node2</title>
<g id="a_Node000002"><a xlink:href="menu_8cpp.html#aeb47d5bce8464f6c564b822231b8c334" target="_top" xlink:title="Renders the EDIT screen.">
<polygon fill="white" stroke="#666666" points="203.38,-115 118.38,-115 118.38,-95 203.38,-95 203.38,-115"/>
<text xml:space="preserve" text-anchor="middle" x="160.88" y="-101.5" font-family="Helvetica,sans-Serif" font-size="10.00">drawEditScreen</text>
</a>
</g>
</g>
<!-- Node1&#45;&gt;Node2 -->
<g id="edge1_Node000001_Node000002" class="edge">
<title>Node1&#45;&gt;Node2</title>
<g id="a_edge1_Node000001_Node000002"><a xlink:title=" ">
<path fill="none" stroke="#63b8ff" d="M72.62,-77.48C86.06,-81.72 101.75,-86.67 116.09,-91.19"/>
<polygon fill="#63b8ff" stroke="#63b8ff" points="114.7,-94.43 125.29,-94.09 116.81,-87.75 114.7,-94.43"/>
</a>
</g>
</g>
<!-- Node3 -->
<g id="Node000003" class="node">
<title>Node3</title>
<g id="a_Node000003"><a xlink:href="menu_8cpp.html#a74f61154ae0d95b0cbcb990bb618bd6b" target="_top" xlink:title="Renders the MENU screen.">
<polygon fill="white" stroke="#666666" points="206.75,-77 115,-77 115,-57 206.75,-57 206.75,-77"/>
<text xml:space="preserve" text-anchor="middle" x="160.88" y="-63.5" font-family="Helvetica,sans-Serif" font-size="10.00">drawMenuScreen</text>
</a>
</g>
</g>
<!-- Node1&#45;&gt;Node3 -->
<g id="edge2_Node000001_Node000003" class="edge">
<title>Node1&#45;&gt;Node3</title>
<g id="a_edge2_Node000001_Node000003"><a xlink:title=" ">
<path fill="none" stroke="#63b8ff" d="M77.17,-67C85.43,-67 94.34,-67 103.15,-67"/>
<polygon fill="#63b8ff" stroke="#63b8ff" points="103.09,-70.5 113.09,-67 103.09,-63.5 103.09,-70.5"/>
</a>
</g>
</g>
<!-- Node4 -->
<g id="Node000004" class="node">
<title>Node4</title>
<g id="a_Node000004"><a xlink:href="menu_8cpp.html#ac7b45625afa882ca79f9bd66562ebabc" target="_top" xlink:title="Renders the main STATUS screen.">
<polygon fill="white" stroke="#666666" points="209,-39 112.75,-39 112.75,-19 209,-19 209,-39"/>
<text xml:space="preserve" text-anchor="middle" x="160.88" y="-25.5" font-family="Helvetica,sans-Serif" font-size="10.00">drawStatusScreen</text>
</a>
</g>
</g>
<!-- Node1&#45;&gt;Node4 -->
<g id="edge3_Node000001_Node000004" class="edge">
<title>Node1&#45;&gt;Node4</title>
<g id="a_edge3_Node000001_Node000004"><a xlink:title=" ">
<path fill="none" stroke="#63b8ff" d="M72.62,-56.52C86.06,-52.28 101.75,-47.33 116.09,-42.81"/>
<polygon fill="#63b8ff" stroke="#63b8ff" points="116.81,-46.25 125.29,-39.91 114.7,-39.57 116.81,-46.25"/>
</a>
</g>
</g>
<!-- Node5 -->
<g id="Node000005" class="node">
<title>Node5</title>
<g id="a_Node000005"><a xlink:href="group___control.html#gabecb5f83728978fa055fb79b320ce04d" target="_top" xlink:title="Returns the desired actuator outputs.">
<polygon fill="white" stroke="#666666" points="348,-58 245,-58 245,-38 348,-38 348,-58"/>
<text xml:space="preserve" text-anchor="middle" x="296.5" y="-44.5" font-family="Helvetica,sans-Serif" font-size="10.00">controlGetActuators</text>
</a>
</g>
</g>
<!-- Node4&#45;&gt;Node5 -->
<g id="edge4_Node000004_Node000005" class="edge">
<title>Node4&#45;&gt;Node5</title>
<g id="a_edge4_Node000004_Node000005"><a xlink:title=" ">
<path fill="none" stroke="#63b8ff" d="M209.36,-35.75C217.11,-36.85 225.24,-38.01 233.28,-39.15"/>
<polygon fill="#63b8ff" stroke="#63b8ff" points="232.65,-42.6 243.04,-40.54 233.64,-35.67 232.65,-42.6"/>
</a>
</g>
</g>
<!-- Node6 -->
<g id="Node000006" class="node">
<title>Node6</title>
<g id="a_Node000006"><a xlink:href="sensors_8cpp.html#a747eba28f262113fcfec0a92386d2d36" target="_top" xlink:title="Returns the most recently computed sensor state.">
<polygon fill="white" stroke="#666666" points="341.25,-20 251.75,-20 251.75,0 341.25,0 341.25,-20"/>
<text xml:space="preserve" text-anchor="middle" x="296.5" y="-6.5" font-family="Helvetica,sans-Serif" font-size="10.00">sensorsGetState</text>
</a>
</g>
</g>
<!-- Node4&#45;&gt;Node6 -->
<g id="edge5_Node000004_Node000006" class="edge">
<title>Node4&#45;&gt;Node6</title>
<g id="a_edge5_Node000004_Node000006"><a xlink:title=" ">
<path fill="none" stroke="#63b8ff" d="M209.36,-22.25C219.28,-20.84 229.82,-19.34 240,-17.89"/>
<polygon fill="#63b8ff" stroke="#63b8ff" points="240.39,-21.37 249.79,-16.5 239.4,-14.44 240.39,-21.37"/>
</a>
</g>
</g>
</g>
</svg>
</svg>

<style type='text/css'>
<![CDATA[
[data-mouse-over-selected='false'] { opacity: 0.7; }
[data-mouse-over-selected='true']  { opacity: 1.0; }
]]>
</style>
<script type="application/ecmascript"><![CDATA[
document.addEventListener('DOMContentLoaded', (event) => {
  highlightEdges();
  highlightAdjacentNodes();
});
]]></script>
</svg>
