<?xml version="1.0" encoding="UTF-8" standalone="no"?>
<!DOCTYPE svg PUBLIC "-//W3C//DTD SVG 1.1//EN"
 "http://www.w3.org/Graphics/SVG/1.1/DTD/svg11.dtd">
<!-- Generated by graphviz version 14.1.2 (20260124.0452)
 -->
<!-- Title: drawStatusScreen Pages: 1 -->
<svg width="243pt" height="66pt"
 viewBox="0.00 0.00 243.00 66.00" xmlns="http://www.w3.org/2000/svg" xmlns:xlink="http://www.w3.org/1999/xlink">
<g id="graph0" class="graph" transform="scale(1 1) rotate(0) translate(4 62)">
<title>drawStatusScreen</title>
<!-- Node1 -->
<g id="Node000001" class="node">
<title>Node1</title>
<g id="a_Node000001"><a xlink:title="Renders the main STATUS screen.">
<polygon fill="#999999" stroke="#666666" points="96.25,-39 0,-39 0,-19 96.25,-19 96.25,-39"/>
<text xml:space="preserve" text-anchor="middle" x="48.12" y="-25.5" font-family="Helvetica,sans-Serif" font-size="10.00">drawStatusScreen</text>
</a>
</g>
</g>
<!-- Node2 -->
<g id="Node000002" class="node">
<title>Node2</title>
<g id="a_Node000002"><a xlink:href="group___control.html#gabecb5f83728978fa055fb79b320ce04d" target="_top" xlink:title="Returns the desired actuator outputs.">
<polygon fill="white" stroke="#666666" points="235.25,-58 132.25,-58 132.25,-38 235.25,-38 235.25,-58"/>
<text xml:space="preserve" text-anchor="middle" x="183.75" y="-44.5" font-family="Helvetica,sans-Serif" font-size="10.00">controlGetActuators</text>
</a>
</g>
</g>
<!-- Node1&#45;&gt;Node2 -->
<g id="edge1_Node000001_Node000002" class="edge">
<title>Node1&#45;&gt;Node2</title>
<g id="a_edge1_Node000001_Node000002"><a xlink:title=" ">
<path fill="none" stroke="#63b8ff" d="M96.61,-35.75C104.36,-36.85 112.49,-38.01 120.53,-39.15"/>
<polygon fill="#63b8ff" stroke="#63b8ff" points="119.9,-42.6 130.29,-40.54 120.89,-35.67 119.9,-42.6"/>
</a>
</g>
</g>
<!-- Node3 -->
<g id="Node000003" class="node">
<title>Node3</title>
<g id="a_Node000003"><a xlink:href="sensors_8cpp.html#a747eba28f262113fcfec0a92386d2d36" target="_top" xlink:title="Returns the most recently computed sensor state.">
<polygon fill="white" stroke="#666666" points="228.5,-20 139,-20 139,0 228.5,0 228.5,-20"/>
<text xml:space="preserve" text-anchor="middle" x="183.75" y="-6.5" font-family="Helvetica,sans-Serif" font-size="10.00">sensorsGetState</text>
</a>
</g>
</g>
<!-- Node1&#45;&gt;Node3 -->
<g id="edge2_Node000001_Node000003" class="edge">
<title>Node1&#45;&gt;Node3</title>
<g id="a_edge2_Node000001_Node000003"><a xlink:title=" ">
<path fill="none" stroke="#63b8ff" d="M96.61,-22.25C106.53,-20.84 117.07,-19.34 127.25,-17.89"/>
<polygon fill="#63b8ff" stroke="#63b8ff" points="127.64,-21.37 137.04,-16.5 126.65,-14.44 127.64,-21.37"/>
</a>
</g>
</g>
</g>
</svg>
