<?xml version="1.0" encoding="UTF-8" standalone="no"?>
<!DOCTYPE svg PUBLIC "-//W3C//DTD SVG 1.1//EN"
 "http://www.w3.org/Graphics/SVG/1.1/DTD/svg11.dtd">
<!-- Generated by graphviz version 14.1.2 (20260124.0452)
 -->
<!-- Title: menu_callbacks.h Pages: 1 -->
<svg width="190pt" height="84pt"
 viewBox="0.00 0.00 190.00 84.00" xmlns="http://www.w3.org/2000/svg" xmlns:xlink="http://www.w3.org/1999/xlink">
<g id="graph0" class="graph" transform="scale(1 1) rotate(0) translate(4 80)">
<title>menu_callbacks.h</title>
<!-- Node1 -->
<g id="Node000001" class="node">
<title>Node1</title>
<g id="a_Node000001"><a xlink:title="Declarations for menu action handlers.">
<polygon fill="#999999" stroke="#666666" points="126.75,-76 32,-76 32,-56 126.75,-56 126.75,-76"/>
<text xml:space="preserve" text-anchor="middle" x="79.38" y="-62.5" font-family="Helvetica,sans-Serif" font-size="10.00">menu_callbacks.h</text>
</a>
</g>
</g>
<!-- Node2 -->
<g id="Node000002" class="node">
<title>Node2</title>
<g id="a_Node000002"><a xlink:href="menu_8cpp.html" target="_top" xlink:title=" ">
<polygon fill="white" stroke="#666666" points="58.75,-20 0,-20 0,0 58.75,0 58.75,-20"/>
<text xml:space="preserve" text-anchor="middle" x="29.38" y="-6.5" font-family="Helvetica,sans-Serif" font-size="10.00">menu.cpp</text>
</a>
</g>
</g>
<!-- Node1&#45;&gt;Node2 -->
<g id="edge1_Node000001_Node000002" class="edge">
<title>Node1&#45;&gt;Node2</title>
<g id="a_edge1_Node000001_Node000002"><a xlink:title=" ">
<path fill="none" stroke="#63b8ff" d="M62.97,-47.29C54.63,-38.28 44.84,-27.7 37.98,-20.3"/>
<polygon fill="#63b8ff" stroke="#63b8ff" points="60.28,-49.52 69.64,-54.48 65.41,-44.77 60.28,-49.52"/>
</a>
</g>
</g>
<!-- Node3 -->
<g id="Node000003" class="node">
<title>Node3</title>
<g id="a_Node000003"><a xlink:href="menu__callbacks_8cpp.html" target="_top" xlink:title="Menu action handlers for the Smart Garage Controller UI.">
<polygon fill="white" stroke="#666666" points="182,-20 76.75,-20 76.75,0 182,0 182,-20"/>
<text xml:space="preserve" text-anchor="middle" x="129.38" y="-6.5" font-family="Helvetica,sans-Serif" font-size="10.00">menu_callbacks.cpp</text>
</a>
</g>
</g>
<!-- Node1&#45;&gt;Node3 -->
<g id="edge2_Node000001_Node000003" class="edge">
<title>Node1&#45;&gt;Node3</title>
<g id="a_edge2_Node000001_Node000003"><a xlink:title=" ">
<path fill="none" stroke="#63b8ff" d="M95.78,-47.29C104.12,-38.28 113.91,-27.7 120.77,-20.3"/>
<polygon fill="#63b8ff" stroke="#63b8ff" points="93.34,-44.77 89.11,-54.48 98.47,-49.52 93.34,-44.77"/>
</a>
</g>
</g>
</g>
</svg>
