<?xml version="1.0" encoding="UTF-8" standalone="no"?>
<!DOCTYPE svg PUBLIC "-//W3C//DTD SVG 1.1//EN"
 "http://www.w3.org/Graphics/SVG/1.1/DTD/svg11.dtd">
<!-- Generated by graphviz version 14.1.2 (20260124.0452)
 -->
<!-- Title: menu_callbacks.cpp Pages: 1 -->
<svg width="326pt" height="196pt"
 viewBox="0.00 0.00 326.00 196.00" xmlns="http://www.w3.org/2000/svg" xmlns:xlink="http://www.w3.org/1999/xlink">

<svg id="main" version="1.1" xmlns="http://www.w3.org/2000/svg" xmlns:xlink="http://www.w3.org/1999/xlink" xml:space="preserve">

<style type="text/css"><![CDATA[
.node, .edge {opacity: 0.7;}
.node.selected, .edge.selected {opacity: 1;}
.edge:hover path { stroke: red; }
.edge:hover polygon { stroke: red; fill: red; }
]]></style>
<script type="application/ecmascript" xlink:href="svg.min.js"/>
<svg id="graph" class="graph">
<g id="graph0" class="graph" transform="scale(1 1) rotate(0) translate(4 192)">
<title>menu_callbacks.cpp</title>
<!-- Node1 -->
<g id="Node000001" class="node">
<title>Node1</title>
<g id="a_Node000001"><a xlink:title="Menu action handlers for the Smart Garage Controller UI.">
<polygon fill="#999999" stroke="#666666" points="230,-188 124.75,-188 124.75,-168 230,-168 230,-188"/>
<text xml:space="preserve" text-anchor="middle" x="177.38" y="-174.5" font-family="Helvetica,sans-Serif" font-size="10.00">menu_callbacks.cpp</text>
</a>
</g>
</g>
<!-- Node2 -->
<g id="Node000002" class="node">
<title>Node2</title>
<g id="a_Node000002"><a xlink:href="menu__callbacks_8h.html" target="_top" xlink:title="Declarations for menu action handlers.">
<polygon fill="white" stroke="#666666" points="94.75,-132 0,-132 0,-112 94.75,-112 94.75,-132"/>
<text xml:space="preserve" text-anchor="middle" x="47.38" y="-118.5" font-family="Helvetica,sans-Serif" font-size="10.00">menu_callbacks.h</text>
</a>
</g>
</g>
<!-- Node1&#45;&gt;Node2 -->
<g id="edge1_Node000001_Node000002" class="edge">
<title>Node1&#45;&gt;Node2</title>
<g id="a_edge1_Node000001_Node000002"><a xlink:title=" ">
<path fill="none" stroke="#63b8ff" d="M154.73,-167.59C134.26,-159.09 103.86,-146.46 80.63,-136.81"/>
<polygon fill="#63b8ff" stroke="#63b8ff" points="82.17,-133.66 71.59,-133.06 79.49,-140.13 82.17,-133.66"/>
</a>
</g>
</g>
<!-- Node3 -->
<g id="Node000003" class="node">
<title>Node3</title>
<g id="a_Node000003"><a xlink:href="ui__state_8h.html" target="_top" xlink:title="UI state machine definitions for the Smart Garage Controller.">
<polygon fill="white" stroke="#666666" points="89.75,-76 31,-76 31,-56 89.75,-56 89.75,-76"/>
<text xml:space="preserve" text-anchor="middle" x="60.38" y="-62.5" font-family="Helvetica,sans-Serif" font-size="10.00">ui_state.h</text>
</a>
</g>
</g>
<!-- Node1&#45;&gt;Node3 -->
<g id="edge2_Node000001_Node000003" class="edge">
<title>Node1&#45;&gt;Node3</title>
<g id="a_edge2_Node000001_Node000003"><a xlink:title=" ">
<path fill="none" stroke="#63b8ff" d="M167.4,-167.62C147.71,-149.11 103.61,-107.65 78.6,-84.13"/>
<polygon fill="#63b8ff" stroke="#63b8ff" points="81.11,-81.69 71.43,-77.39 76.32,-86.79 81.11,-81.69"/>
</a>
</g>
</g>
<!-- Node5 -->
<g id="Node000005" class="node">
<title>Node5</title>
<g id="a_Node000005"><a xlink:href="control_8h.html" target="_top" xlink:title="Control Logic subsystem interface for the Smart Garage Controller.">
<polygon fill="white" stroke="#666666" points="204.12,-132 150.62,-132 150.62,-112 204.12,-112 204.12,-132"/>
<text xml:space="preserve" text-anchor="middle" x="177.38" y="-118.5" font-family="Helvetica,sans-Serif" font-size="10.00">control.h</text>
</a>
</g>
</g>
<!-- Node1&#45;&gt;Node5 -->
<g id="edge4_Node000001_Node000005" class="edge">
<title>Node1&#45;&gt;Node5</title>
<g id="a_edge4_Node000001_Node000005"><a xlink:title=" ">
<path fill="none" stroke="#63b8ff" d="M177.38,-167.59C177.38,-161.01 177.38,-151.96 177.38,-143.73"/>
<polygon fill="#63b8ff" stroke="#63b8ff" points="180.88,-143.81 177.38,-133.81 173.88,-143.81 180.88,-143.81"/>
</a>
</g>
</g>
<!-- Node6 -->
<g id="Node000006" class="node">
<title>Node6</title>
<g id="a_Node000006"><a xlink:href="sensors_8h.html" target="_top" xlink:title="Sensor subsystem interface for the Smart Garage Controller.">
<polygon fill="white" stroke="#666666" points="286.75,-76 228,-76 228,-56 286.75,-56 286.75,-76"/>
<text xml:space="preserve" text-anchor="middle" x="257.38" y="-62.5" font-family="Helvetica,sans-Serif" font-size="10.00">sensors.h</text>
</a>
</g>
</g>
<!-- Node1&#45;&gt;Node6 -->
<g id="edge10_Node000001_Node000006" class="edge">
<title>Node1&#45;&gt;Node6</title>
<g id="a_edge10_Node000001_Node000006"><a xlink:title=" ">
<path fill="none" stroke="#63b8ff" d="M185.33,-167.52C192.77,-158.53 204.12,-144.57 213.38,-132 224.6,-116.76 236.59,-98.93 245.22,-85.8"/>
<polygon fill="#63b8ff" stroke="#63b8ff" points="247.98,-87.97 250.51,-77.69 242.12,-84.15 247.98,-87.97"/>
</a>
</g>
</g>
<!-- Node8 -->
<g id="Node000008" class="node">
<title>Node8</title>
<g id="a_Node000008"><a xlink:title=" ">
<polygon fill="#e0e0e0" stroke="#999999" points="318,-132 260.75,-132 260.75,-112 318,-112 318,-132"/>
<text xml:space="preserve" text-anchor="middle" x="289.38" y="-118.5" font-family="Helvetica,sans-Serif" font-size="10.00">Arduino.h</text>
</a>
</g>
</g>
<!-- Node1&#45;&gt;Node8 -->
<g id="edge11_Node000001_Node000008" class="edge">
<title>Node1&#45;&gt;Node8</title>
<g id="a_edge11_Node000001_Node000008"><a xlink:title=" ">
<path fill="none" stroke="#63b8ff" d="M196.88,-167.59C214.12,-159.28 239.53,-147.03 259.36,-137.47"/>
<polygon fill="#63b8ff" stroke="#63b8ff" points="260.86,-140.63 268.35,-133.14 257.82,-134.33 260.86,-140.63"/>
</a>
</g>
</g>
<!-- Node4 -->
<g id="Node000004" class="node">
<title>Node4</title>
<g id="a_Node000004"><a xlink:title=" ">
<polygon fill="#e0e0e0" stroke="#999999" points="171.5,-20 123.25,-20 123.25,0 171.5,0 171.5,-20"/>
<text xml:space="preserve" text-anchor="middle" x="147.38" y="-6.5" font-family="Helvetica,sans-Serif" font-size="10.00">stdint.h</text>
</a>
</g>
</g>
<!-- Node3&#45;&gt;Node4 -->
<g id="edge3_Node000003_Node000004" class="edge">
<title>Node3&#45;&gt;Node4</title>
<g id="a_edge3_Node000003_Node000004"><a xlink:title=" ">
<path fill="none" stroke="#63b8ff" d="M75.53,-55.59C88.42,-47.59 107.21,-35.93 122.33,-26.54"/>
<polygon fill="#63b8ff" stroke="#63b8ff" points="124.17,-29.53 130.82,-21.28 120.47,-23.58 124.17,-29.53"/>
</a>
</g>
</g>
<!-- Node5&#45;&gt;Node4 -->
<g id="edge5_Node000005_Node000004" class="edge">
<title>Node5&#45;&gt;Node4</title>
<g id="a_edge5_Node000005_Node000004"><a xlink:title=" ">
<path fill="none" stroke="#63b8ff" d="M164.66,-111.52C154.84,-103.35 142.02,-90.59 136.38,-76 130.74,-61.45 134.22,-43.98 138.71,-30.81"/>
<polygon fill="#63b8ff" stroke="#63b8ff" points="141.95,-32.13 142.33,-21.54 135.43,-29.58 141.95,-32.13"/>
</a>
</g>
</g>
<!-- Node5&#45;&gt;Node6 -->
<g id="edge6_Node000005_Node000006" class="edge">
<title>Node5&#45;&gt;Node6</title>
<g id="a_edge6_Node000005_Node000006"><a xlink:title=" ">
<path fill="none" stroke="#63b8ff" d="M191.31,-111.59C203.05,-103.67 220.11,-92.16 233.94,-82.82"/>
<polygon fill="#63b8ff" stroke="#63b8ff" points="235.75,-85.82 242.08,-77.33 231.83,-80.02 235.75,-85.82"/>
</a>
</g>
</g>
<!-- Node7 -->
<g id="Node000007" class="node">
<title>Node7</title>
<g id="a_Node000007"><a xlink:href="actuators_8h.html" target="_top" xlink:title="Actuator subsystem interface for the Smart Garage Controller.">
<polygon fill="white" stroke="#666666" points="209.75,-76 145,-76 145,-56 209.75,-56 209.75,-76"/>
<text xml:space="preserve" text-anchor="middle" x="177.38" y="-62.5" font-family="Helvetica,sans-Serif" font-size="10.00">actuators.h</text>
</a>
</g>
</g>
<!-- Node5&#45;&gt;Node7 -->
<g id="edge8_Node000005_Node000007" class="edge">
<title>Node5&#45;&gt;Node7</title>
<g id="a_edge8_Node000005_Node000007"><a xlink:title=" ">
<path fill="none" stroke="#63b8ff" d="M177.38,-111.59C177.38,-105.01 177.38,-95.96 177.38,-87.73"/>
<polygon fill="#63b8ff" stroke="#63b8ff" points="180.88,-87.81 177.38,-77.81 173.88,-87.81 180.88,-87.81"/>
</a>
</g>
</g>
<!-- Node6&#45;&gt;Node4 -->
<g id="edge7_Node000006_Node000004" class="edge">
<title>Node6&#45;&gt;Node4</title>
<g id="a_edge7_Node000006_Node000004"><a xlink:title=" ">
<path fill="none" stroke="#63b8ff" d="M238.21,-55.59C221.28,-47.28 196.33,-35.03 176.85,-25.47"/>
<polygon fill="#63b8ff" stroke="#63b8ff" points="178.56,-22.41 168.04,-21.15 175.48,-28.7 178.56,-22.41"/>
</a>
</g>
</g>
<!-- Node7&#45;&gt;Node4 -->
<g id="edge9_Node000007_Node000004" class="edge">
<title>Node7&#45;&gt;Node4</title>
<g id="a_edge9_Node000007_Node000004"><a xlink:title=" ">
<path fill="none" stroke="#63b8ff" d="M172.15,-55.59C168.28,-48.63 162.87,-38.89 158.09,-30.29"/>
<polygon fill="#63b8ff" stroke="#63b8ff" points="161.19,-28.66 153.28,-21.62 155.07,-32.06 161.19,-28.66"/>
</a>
</g>
</g>
</g>
</svg>
</svg>

<style type='text/css'>
<![CDATA[
[data-mouse-over-selected='false'] { opacity: 0.7; }
[data-mouse-over-selected='true']  { opacity: 1.0; }
]]>
</style>
<script type="application/ecmascript"><![CDATA[
document.addEventListener('DOMContentLoaded', (event) => {
  highlightEdges();
  highlightAdjacentNodes();
});
]]></script>
</svg>
