<?xml version="1.0" encoding="UTF-8" standalone="no"?>
<!DOCTYPE svg PUBLIC "-//W3C//DTD SVG 1.1//EN"
 "http://www.w3.org/Graphics/SVG/1.1/DTD/svg11.dtd">
<!-- Generated by graphviz version 14.1.2 (20260124.0452)
 -->
<!-- Title: enterEditMode Pages: 1 -->
<svg width="212pt" height="66pt"
 viewBox="0.00 0.00 212.00 66.00" xmlns="http://www.w3.org/2000/svg" xmlns:xlink="http://www.w3.org/1999/xlink">
<g id="graph0" class="graph" transform="scale(1 1) rotate(0) translate(4 62)">
<title>enterEditMode</title>
<!-- Node1 -->
<g id="Node000001" class="node">
<title>Node1</title>
<g id="a_Node000001"><a xlink:title="Enters EDIT mode for modifying a configuration value.">
<polygon fill="#999999" stroke="#666666" points="203.75,-39 124.75,-39 124.75,-19 203.75,-19 203.75,-39"/>
<text xml:space="preserve" text-anchor="middle" x="164.25" y="-25.5" font-family="Helvetica,sans-Serif" font-size="10.00">enterEditMode</text>
</a>
</g>
</g>
<!-- Node2 -->
<g id="Node000002" class="node">
<title>Node2</title>
<g id="a_Node000002"><a xlink:href="menu__callbacks_8cpp.html#a5bf55b9dfb33197b2c80ce3579947d70" target="_top" xlink:title="Begins editing the &quot;heat off&quot; temperature threshold.">
<polygon fill="white" stroke="#666666" points="88.75,-58 0,-58 0,-38 88.75,-38 88.75,-58"/>
<text xml:space="preserve" text-anchor="middle" x="44.38" y="-44.5" font-family="Helvetica,sans-Serif" font-size="10.00">menuSetHeatOff</text>
</a>
</g>
</g>
<!-- Node1&#45;&gt;Node2 -->
<g id="edge1_Node000001_Node000002" class="edge">
<title>Node1&#45;&gt;Node2</title>
<g id="a_edge1_Node000001_Node000002"><a xlink:title=" ">
<path fill="none" stroke="#63b8ff" d="M113.22,-37.06C105.22,-38.35 96.99,-39.68 89.15,-40.94"/>
<polygon fill="#63b8ff" stroke="#63b8ff" points="113.52,-40.56 122.83,-35.51 112.4,-33.65 113.52,-40.56"/>
</a>
</g>
</g>
<!-- Node3 -->
<g id="Node000003" class="node">
<title>Node3</title>
<g id="a_Node000003"><a xlink:href="menu__callbacks_8cpp.html#a94a5e9358cfeea74b2ff1f4ce562b02c" target="_top" xlink:title="Begins editing the &quot;heat on&quot; temperature threshold.">
<polygon fill="white" stroke="#666666" points="88.75,-20 0,-20 0,0 88.75,0 88.75,-20"/>
<text xml:space="preserve" text-anchor="middle" x="44.38" y="-6.5" font-family="Helvetica,sans-Serif" font-size="10.00">menuSetHeatOn</text>
</a>
</g>
</g>
<!-- Node1&#45;&gt;Node3 -->
<g id="edge2_Node000001_Node000003" class="edge">
<title>Node1&#45;&gt;Node3</title>
<g id="a_edge2_Node000001_Node000003"><a xlink:title=" ">
<path fill="none" stroke="#63b8ff" d="M113.22,-20.94C105.22,-19.65 96.99,-18.32 89.15,-17.06"/>
<polygon fill="#63b8ff" stroke="#63b8ff" points="112.4,-24.35 122.83,-22.49 113.52,-17.44 112.4,-24.35"/>
</a>
</g>
</g>
</g>
</svg>
