<?xml version="1.0" encoding="UTF-8" standalone="no"?>
<!DOCTYPE svg PUBLIC "-//W3C//DTD SVG 1.1//EN"
 "http://www.w3.org/Graphics/SVG/1.1/DTD/svg11.dtd">
<!-- Generated by graphviz version 14.1.2 (20260124.0452)
 -->
<!-- Title: menu.cpp Pages: 1 -->
<!--zoomable 196 -->

<svg id="main" version="1.1" xmlns="http://www.w3.org/2000/svg" xmlns:xlink="http://www.w3.org/1999/xlink" xml:space="preserve" onload="init(evt)">

<style type="text/css"><![CDATA[
.node, .edge {opacity: 0.7;}
.node.selected, .edge.selected {opacity: 1;}
.edge:hover path { stroke: red; }
.edge:hover polygon { stroke: red; fill: red; }
]]></style>

<defs>
  <circle id="rim" cx="0" cy="0" r="7"/>
  <circle id="rim2" cx="0" cy="0" r="3.5"/>
  <g id="zoomPlus">
    <use xlink:href="#rim" fill="#404040"><set attributeName="fill" to="#808080" begin="zoomplus.mouseover" end="zoomplus.mouseout"/></use>
    <path d="M-4,0h8M0,-4v8" fill="none" stroke="white" stroke-width="1.5" pointer-events="none"/>
  </g>
  <g id="zoomMin">
    <use xlink:href="#rim" fill="#404040"><set attributeName="fill" to="#808080" begin="zoomminus.mouseover" end="zoomminus.mouseout"/></use>
    <path d="M-4,0h8" fill="none" stroke="white" stroke-width="1.5" pointer-events="none"/>
  </g>
  <g id="arrowUp" transform="translate(30 24)">
    <use xlink:href="#rim"/>
    <path pointer-events="none" fill="none" stroke="white" stroke-width="1.5" d="M0,-3.0v7 M-2.5,-0.5L0,-3.0L2.5,-0.5"/>
  </g>
  <g id="arrowRight" transform="rotate(90) translate(36 -43)">
    <use xlink:href="#rim"/>
    <path pointer-events="none" fill="none" stroke="white" stroke-width="1.5" d="M0,-3.0v7 M-2.5,-0.5L0,-3.0L2.5,-0.5"/>
  </g>
  <g id="arrowDown" transform="rotate(180) translate(-30 -48)">
    <use xlink:href="#rim"/>
    <path pointer-events="none" fill="none" stroke="white" stroke-width="1.5" d="M0,-3.0v7 M-2.5,-0.5L0,-3.0L2.5,-0.5"/>
  </g>
  <g id="arrowLeft" transform="rotate(270) translate(-36 17)">
    <use xlink:href="#rim"/>
    <path pointer-events="none" fill="none" stroke="white" stroke-width="1.5" d="M0,-3.0v7 M-2.5,-0.5L0,-3.0L2.5,-0.5"/>
  </g>
  <g id="resetDef">
    <use xlink:href="#rim2" fill="#404040"><set attributeName="fill" to="#808080" begin="reset.mouseover" end="reset.mouseout"/></use>
  </g>
</defs>
<script type="application/ecmascript">
var viewWidth = 555;
var viewHeight = 196;
var sectionId = 'dynsection-0';
</script>
<script type="application/ecmascript" xlink:href="svg.min.js"/>
<svg id="graph" class="graph">
<g id="viewport">
<title>menu.cpp</title>
<!-- Node1 -->
<g id="Node000001" class="node">
<title>Node1</title>
<g id="a_Node000001"><a xlink:title=" ">
<polygon fill="#999999" stroke="#666666" points="261.12,-188 202.38,-188 202.38,-168 261.12,-168 261.12,-188"/>
<text xml:space="preserve" text-anchor="middle" x="231.75" y="-174.5" font-family="Helvetica,sans-Serif" font-size="10.00">menu.cpp</text>
</a>
</g>
</g>
<!-- Node2 -->
<g id="Node000002" class="node">
<title>Node2</title>
<g id="a_Node000002"><a xlink:title=" ">
<polygon fill="#e0e0e0" stroke="#999999" points="53.5,-132 0,-132 0,-112 53.5,-112 53.5,-132"/>
<text xml:space="preserve" text-anchor="middle" x="26.75" y="-118.5" font-family="Helvetica,sans-Serif" font-size="10.00">menus.h</text>
</a>
</g>
</g>
<!-- Node1&#45;&gt;Node2 -->
<g id="edge1_Node000001_Node000002" class="edge">
<title>Node1&#45;&gt;Node2</title>
<g id="a_edge1_Node000001_Node000002"><a xlink:title=" ">
<path fill="none" stroke="#63b8ff" d="M201.94,-169.15C165.76,-159.62 104.68,-143.53 65.04,-133.09"/>
<polygon fill="#63b8ff" stroke="#63b8ff" points="66,-129.72 55.44,-130.56 64.22,-136.49 66,-129.72"/>
</a>
</g>
</g>
<!-- Node3 -->
<g id="Node000003" class="node">
<title>Node3</title>
<g id="a_Node000003"><a xlink:href="ui__state_8h.html" target="_top" xlink:title="UI state machine definitions for the Smart Garage Controller.">
<polygon fill="white" stroke="#666666" points="141.12,-76 82.38,-76 82.38,-56 141.12,-56 141.12,-76"/>
<text xml:space="preserve" text-anchor="middle" x="111.75" y="-62.5" font-family="Helvetica,sans-Serif" font-size="10.00">ui_state.h</text>
</a>
</g>
</g>
<!-- Node1&#45;&gt;Node3 -->
<g id="edge2_Node000001_Node000003" class="edge">
<title>Node1&#45;&gt;Node3</title>
<g id="a_edge2_Node000001_Node000003"><a xlink:title=" ">
<path fill="none" stroke="#63b8ff" d="M201.96,-170.63C179.67,-164.38 150.02,-152.69 131.75,-132 120.86,-119.67 115.9,-101.5 113.64,-87.51"/>
<polygon fill="#63b8ff" stroke="#63b8ff" points="117.12,-87.11 112.42,-77.62 110.17,-87.97 117.12,-87.11"/>
</a>
</g>
</g>
<!-- Node5 -->
<g id="Node000005" class="node">
<title>Node5</title>
<g id="a_Node000005"><a xlink:href="ui_8h.html" target="_top" xlink:title="Public interface for the User Interface (UI) subsystem.">
<polygon fill="white" stroke="#666666" points="205.62,-76 173.88,-76 173.88,-56 205.62,-56 205.62,-76"/>
<text xml:space="preserve" text-anchor="middle" x="189.75" y="-62.5" font-family="Helvetica,sans-Serif" font-size="10.00">ui.h</text>
</a>
</g>
</g>
<!-- Node1&#45;&gt;Node5 -->
<g id="edge4_Node000001_Node000005" class="edge">
<title>Node1&#45;&gt;Node5</title>
<g id="a_edge4_Node000001_Node000005"><a xlink:title=" ">
<path fill="none" stroke="#63b8ff" d="M202.25,-171.38C180.57,-165.54 152.57,-154.03 138.75,-132 127.39,-113.89 146.54,-94.84 164.53,-82.08"/>
<polygon fill="#63b8ff" stroke="#63b8ff" points="166,-85.3 172.4,-76.85 162.13,-79.47 166,-85.3"/>
</a>
</g>
</g>
<!-- Node6 -->
<g id="Node000006" class="node">
<title>Node6</title>
<g id="a_Node000006"><a xlink:href="menu__callbacks_8h.html" target="_top" xlink:title="Declarations for menu action handlers.">
<polygon fill="white" stroke="#666666" points="242.12,-132 147.38,-132 147.38,-112 242.12,-112 242.12,-132"/>
<text xml:space="preserve" text-anchor="middle" x="194.75" y="-118.5" font-family="Helvetica,sans-Serif" font-size="10.00">menu_callbacks.h</text>
</a>
</g>
</g>
<!-- Node1&#45;&gt;Node6 -->
<g id="edge6_Node000001_Node000006" class="edge">
<title>Node1&#45;&gt;Node6</title>
<g id="a_edge6_Node000001_Node000006"><a xlink:title=" ">
<path fill="none" stroke="#63b8ff" d="M225.31,-167.59C220.42,-160.47 213.56,-150.45 207.57,-141.72"/>
<polygon fill="#63b8ff" stroke="#63b8ff" points="210.52,-139.82 201.98,-133.55 204.74,-143.77 210.52,-139.82"/>
</a>
</g>
</g>
<!-- Node7 -->
<g id="Node000007" class="node">
<title>Node7</title>
<g id="a_Node000007"><a xlink:href="sensors_8h.html" target="_top" xlink:title="Sensor subsystem interface for the Smart Garage Controller.">
<polygon fill="white" stroke="#666666" points="289.12,-76 230.38,-76 230.38,-56 289.12,-56 289.12,-76"/>
<text xml:space="preserve" text-anchor="middle" x="259.75" y="-62.5" font-family="Helvetica,sans-Serif" font-size="10.00">sensors.h</text>
</a>
</g>
</g>
<!-- Node1&#45;&gt;Node7 -->
<g id="edge7_Node000001_Node000007" class="edge">
<title>Node1&#45;&gt;Node7</title>
<g id="a_edge7_Node000001_Node000007"><a xlink:title=" ">
<path fill="none" stroke="#63b8ff" d="M236.58,-167.6C240.95,-158.68 247.24,-144.76 250.75,-132 254.74,-117.5 257.01,-100.67 258.27,-87.77"/>
<polygon fill="#63b8ff" stroke="#63b8ff" points="261.75,-88.18 259.09,-77.92 254.77,-87.59 261.75,-88.18"/>
</a>
</g>
</g>
<!-- Node8 -->
<g id="Node000008" class="node">
<title>Node8</title>
<g id="a_Node000008"><a xlink:href="control_8h.html" target="_top" xlink:title="Control Logic subsystem interface for the Smart Garage Controller.">
<polygon fill="white" stroke="#666666" points="351.5,-132 298,-132 298,-112 351.5,-112 351.5,-132"/>
<text xml:space="preserve" text-anchor="middle" x="324.75" y="-118.5" font-family="Helvetica,sans-Serif" font-size="10.00">control.h</text>
</a>
</g>
</g>
<!-- Node1&#45;&gt;Node8 -->
<g id="edge9_Node000001_Node000008" class="edge">
<title>Node1&#45;&gt;Node8</title>
<g id="a_edge9_Node000001_Node000008"><a xlink:title=" ">
<path fill="none" stroke="#63b8ff" d="M247.95,-167.59C262,-159.44 282.58,-147.48 298.91,-138"/>
<polygon fill="#63b8ff" stroke="#63b8ff" points="300.22,-141.29 307.12,-133.24 296.71,-135.23 300.22,-141.29"/>
</a>
</g>
</g>
<!-- Node10 -->
<g id="Node000010" class="node">
<title>Node10</title>
<g id="a_Node000010"><a xlink:title=" ">
<polygon fill="#e0e0e0" stroke="#999999" points="426.38,-132 369.12,-132 369.12,-112 426.38,-112 426.38,-132"/>
<text xml:space="preserve" text-anchor="middle" x="397.75" y="-118.5" font-family="Helvetica,sans-Serif" font-size="10.00">Arduino.h</text>
</a>
</g>
</g>
<!-- Node1&#45;&gt;Node10 -->
<g id="edge14_Node000001_Node000010" class="edge">
<title>Node1&#45;&gt;Node10</title>
<g id="a_edge14_Node000001_Node000010"><a xlink:title=" ">
<path fill="none" stroke="#63b8ff" d="M260.66,-167.59C287.6,-158.83 327.99,-145.69 357.96,-135.94"/>
<polygon fill="#63b8ff" stroke="#63b8ff" points="359.02,-139.28 367.45,-132.86 356.86,-132.62 359.02,-139.28"/>
</a>
</g>
</g>
<!-- Node11 -->
<g id="Node000011" class="node">
<title>Node11</title>
<g id="a_Node000011"><a xlink:title=" ">
<polygon fill="#e0e0e0" stroke="#999999" points="546.88,-132 444.62,-132 444.62,-112 546.88,-112 546.88,-132"/>
<text xml:space="preserve" text-anchor="middle" x="495.75" y="-118.5" font-family="Helvetica,sans-Serif" font-size="10.00">LiquidCrystal_I2C.h</text>
</a>
</g>
</g>
<!-- Node1&#45;&gt;Node11 -->
<g id="edge15_Node000001_Node000011" class="edge">
<title>Node1&#45;&gt;Node11</title>
<g id="a_edge15_Node000001_Node000011"><a xlink:title=" ">
<path fill="none" stroke="#63b8ff" d="M261.52,-170.91C304.33,-162.16 384.08,-145.84 438.52,-134.71"/>
<polygon fill="#63b8ff" stroke="#63b8ff" points="439.15,-138.15 448.25,-132.72 437.75,-131.29 439.15,-138.15"/>
</a>
</g>
</g>
<!-- Node4 -->
<g id="Node000004" class="node">
<title>Node4</title>
<g id="a_Node000004"><a xlink:title=" ">
<polygon fill="#e0e0e0" stroke="#999999" points="283.88,-20 235.62,-20 235.62,0 283.88,0 283.88,-20"/>
<text xml:space="preserve" text-anchor="middle" x="259.75" y="-6.5" font-family="Helvetica,sans-Serif" font-size="10.00">stdint.h</text>
</a>
</g>
</g>
<!-- Node3&#45;&gt;Node4 -->
<g id="edge3_Node000003_Node000004" class="edge">
<title>Node3&#45;&gt;Node4</title>
<g id="a_edge3_Node000003_Node000004"><a xlink:title=" ">
<path fill="none" stroke="#63b8ff" d="M137.53,-55.59C161.7,-46.78 198.01,-33.53 224.78,-23.76"/>
<polygon fill="#63b8ff" stroke="#63b8ff" points="225.63,-27.17 233.83,-20.46 223.23,-20.6 225.63,-27.17"/>
</a>
</g>
</g>
<!-- Node5&#45;&gt;Node4 -->
<g id="edge5_Node000005_Node000004" class="edge">
<title>Node5&#45;&gt;Node4</title>
<g id="a_edge5_Node000005_Node000004"><a xlink:title=" ">
<path fill="none" stroke="#63b8ff" d="M201.94,-55.59C212.08,-47.77 226.74,-36.46 238.76,-27.19"/>
<polygon fill="#63b8ff" stroke="#63b8ff" points="240.72,-30.1 246.5,-21.22 236.44,-24.56 240.72,-30.1"/>
</a>
</g>
</g>
<!-- Node7&#45;&gt;Node4 -->
<g id="edge8_Node000007_Node000004" class="edge">
<title>Node7&#45;&gt;Node4</title>
<g id="a_edge8_Node000007_Node000004"><a xlink:title=" ">
<path fill="none" stroke="#63b8ff" d="M259.75,-55.59C259.75,-49.01 259.75,-39.96 259.75,-31.73"/>
<polygon fill="#63b8ff" stroke="#63b8ff" points="263.25,-31.81 259.75,-21.81 256.25,-31.81 263.25,-31.81"/>
</a>
</g>
</g>
<!-- Node8&#45;&gt;Node4 -->
<g id="edge10_Node000008_Node000004" class="edge">
<title>Node8&#45;&gt;Node4</title>
<g id="a_edge10_Node000008_Node000004"><a xlink:title=" ">
<path fill="none" stroke="#63b8ff" d="M321.91,-111.75C317.7,-98.74 309.07,-74.57 297.75,-56 291.86,-46.34 283.96,-36.62 276.89,-28.7"/>
<polygon fill="#63b8ff" stroke="#63b8ff" points="279.53,-26.4 270.17,-21.45 274.4,-31.16 279.53,-26.4"/>
</a>
</g>
</g>
<!-- Node8&#45;&gt;Node7 -->
<g id="edge11_Node000008_Node000007" class="edge">
<title>Node8&#45;&gt;Node7</title>
<g id="a_edge11_Node000008_Node000007"><a xlink:title=" ">
<path fill="none" stroke="#63b8ff" d="M313.43,-111.59C304.11,-103.85 290.67,-92.69 279.57,-83.47"/>
<polygon fill="#63b8ff" stroke="#63b8ff" points="282.04,-80.96 272.11,-77.27 277.56,-86.35 282.04,-80.96"/>
</a>
</g>
</g>
<!-- Node9 -->
<g id="Node000009" class="node">
<title>Node9</title>
<g id="a_Node000009"><a xlink:href="actuators_8h.html" target="_top" xlink:title="Actuator subsystem interface for the Smart Garage Controller.">
<polygon fill="white" stroke="#666666" points="409.12,-76 344.38,-76 344.38,-56 409.12,-56 409.12,-76"/>
<text xml:space="preserve" text-anchor="middle" x="376.75" y="-62.5" font-family="Helvetica,sans-Serif" font-size="10.00">actuators.h</text>
</a>
</g>
</g>
<!-- Node8&#45;&gt;Node9 -->
<g id="edge12_Node000008_Node000009" class="edge">
<title>Node8&#45;&gt;Node9</title>
<g id="a_edge12_Node000008_Node000009"><a xlink:title=" ">
<path fill="none" stroke="#63b8ff" d="M333.81,-111.59C340.97,-104.16 351.16,-93.58 359.82,-84.58"/>
<polygon fill="#63b8ff" stroke="#63b8ff" points="362.33,-87.02 366.75,-77.39 357.29,-82.16 362.33,-87.02"/>
</a>
</g>
</g>
<!-- Node9&#45;&gt;Node4 -->
<g id="edge13_Node000009_Node000004" class="edge">
<title>Node9&#45;&gt;Node4</title>
<g id="a_edge13_Node000009_Node000004"><a xlink:title=" ">
<path fill="none" stroke="#63b8ff" d="M356.37,-55.59C338.19,-47.21 311.32,-34.8 290.53,-25.21"/>
<polygon fill="#63b8ff" stroke="#63b8ff" points="292.21,-22.13 281.66,-21.11 289.28,-28.48 292.21,-22.13"/>
</a>
</g>
</g>
</g>
</svg>

<g id="navigator" transform="translate(0 0)" fill="#404254">
  <rect fill="#f2f5e9" fill-opacity="0.5" stroke="#606060" stroke-width=".5" x="0" y="0" width="60" height="60"/>
  <use id="zoomplus" xlink:href="#zoomPlus" x="17" y="9" onmousedown="handleZoom(evt,'in')"/>
  <use id="zoomminus" xlink:href="#zoomMin" x="42" y="9" onmousedown="handleZoom(evt,'out')"/>
  <use id="reset" xlink:href="#resetDef" x="30" y="36" onmousedown="handleReset()"/>
   <use id="arrowup" xlink:href="#arrowUp" x="0" y="0" onmousedown="handlePan(0,-1)"/>
  <use id="arrowright" xlink:href="#arrowRight" x="0" y="0" onmousedown="handlePan(1,0)"/>
  <use id="arrowdown" xlink:href="#arrowDown" x="0" y="0" onmousedown="handlePan(0,1)"/>
  <use id="arrowleft" xlink:href="#arrowLeft" x="0" y="0" onmousedown="handlePan(-1,0)"/>
</g>
<svg viewBox="0 0 15 15" width="100%" height="30px" preserveAspectRatio="xMaxYMin meet">
 <g id="arrow_out" transform="scale(0.3 0.3)">
  <a xlink:href="menu_8cpp__incl_org.svg" target="_base">
   <rect id="button" ry="5" rx="5" y="6" x="6" height="38" width="38"
        fill="#f2f5e9" fill-opacity="0.5" stroke="#606060" stroke-width="1.0"/>
   <path id="arrow"
     d="M 11.500037,31.436501 C 11.940474,20.09759 22.043105,11.32322 32.158766,21.979434 L 37.068811,17.246167 C 37.068811,17.246167 37.088388,32 37.088388,32 L 22.160133,31.978069 C 22.160133,31.978069 26.997745,27.140456 26.997745,27.140456 C 18.528582,18.264221 13.291696,25.230495 11.500037,31.436501 z"
     style="fill:#404040;"/>
  </a>
 </g>
</svg>

<style type='text/css'>
<![CDATA[
[data-mouse-over-selected='false'] { opacity: 0.7; }
[data-mouse-over-selected='true']  { opacity: 1.0; }
]]>
</style>
<script type="application/ecmascript"><![CDATA[
document.addEventListener('DOMContentLoaded', (event) => {
  highlightEdges();
  highlightAdjacentNodes();
});
]]></script>
</svg>
