<?xml version="1.0" encoding="UTF-8" standalone="no"?>
<!DOCTYPE svg PUBLIC "-//W3C//DTD SVG 1.1//EN"
 "http://www.w3.org/Graphics/SVG/1.1/DTD/svg11.dtd">
<!-- Generated by graphviz version 14.1.2 (20260124.0452)
 -->
<!-- Title: renderUi Pages: 1 -->
<svg width="196pt" height="180pt"
 viewBox="0.00 0.00 196.00 180.00" xmlns="http://www.w3.org/2000/svg" xmlns:xlink="http://www.w3.org/1999/xlink">
<g id="graph0" class="graph" transform="scale(1 1) rotate(0) translate(4 176)">
<title>renderUi</title>
<!-- Node1 -->
<g id="Node000001" class="node">
<title>Node1</title>
<g id="a_Node000001"><a xlink:title=" ">
<polygon fill="#999999" stroke="#666666" points="52.75,-96 0,-96 0,-76 52.75,-76 52.75,-96"/>
<text xml:space="preserve" text-anchor="middle" x="26.38" y="-82.5" font-family="Helvetica,sans-Serif" font-size="10.00">renderUi</text>
</a>
</g>
</g>
<!-- Node2 -->
<g id="Node000002" class="node">
<title>Node2</title>
<g id="a_Node000002"><a xlink:href="render_8cpp.html#a57a7117d265c6887cddd7d4d9cef4f74" target="_top" xlink:title=" ">
<polygon fill="white" stroke="#666666" points="177.12,-172 99.62,-172 99.62,-152 177.12,-152 177.12,-172"/>
<text xml:space="preserve" text-anchor="middle" x="138.38" y="-158.5" font-family="Helvetica,sans-Serif" font-size="10.00">renderConfirm</text>
</a>
</g>
</g>
<!-- Node1&#45;&gt;Node2 -->
<g id="edge1_Node000001_Node000002" class="edge">
<title>Node1&#45;&gt;Node2</title>
<g id="a_edge1_Node000001_Node000002"><a xlink:title=" ">
<path fill="none" stroke="#63b8ff" d="M36.02,-96.09C47.14,-108.54 67.56,-129.7 88.75,-143 90.76,-144.26 92.87,-145.46 95.03,-146.6"/>
<polygon fill="#63b8ff" stroke="#63b8ff" points="93.5,-149.75 104.04,-150.86 96.49,-143.42 93.5,-149.75"/>
</a>
</g>
</g>
<!-- Node3 -->
<g id="Node000003" class="node">
<title>Node3</title>
<g id="a_Node000003"><a xlink:href="render_8cpp.html#ab283c5ff50f16b11799128ebedb35029" target="_top" xlink:title=" ">
<polygon fill="white" stroke="#666666" points="180.5,-134 96.25,-134 96.25,-114 180.5,-114 180.5,-134"/>
<text xml:space="preserve" text-anchor="middle" x="138.38" y="-120.5" font-family="Helvetica,sans-Serif" font-size="10.00">renderEditValue</text>
</a>
</g>
</g>
<!-- Node1&#45;&gt;Node3 -->
<g id="edge2_Node000001_Node000003" class="edge">
<title>Node1&#45;&gt;Node3</title>
<g id="a_edge2_Node000001_Node000003"><a xlink:title=" ">
<path fill="none" stroke="#63b8ff" d="M53.17,-94.91C66.02,-99.35 81.87,-104.83 96.34,-109.82"/>
<polygon fill="#63b8ff" stroke="#63b8ff" points="95.04,-113.08 105.63,-113.03 97.32,-106.46 95.04,-113.08"/>
</a>
</g>
</g>
<!-- Node4 -->
<g id="Node000004" class="node">
<title>Node4</title>
<g id="a_Node000004"><a xlink:href="render_8cpp.html#a46633ff8f270f9449dc48b3d738f0939" target="_top" xlink:title=" ">
<polygon fill="white" stroke="#666666" points="185.75,-96 91,-96 91,-76 185.75,-76 185.75,-96"/>
<text xml:space="preserve" text-anchor="middle" x="138.38" y="-82.5" font-family="Helvetica,sans-Serif" font-size="10.00">renderMainScreen</text>
</a>
</g>
</g>
<!-- Node1&#45;&gt;Node4 -->
<g id="edge3_Node000001_Node000004" class="edge">
<title>Node1&#45;&gt;Node4</title>
<g id="a_edge3_Node000001_Node000004"><a xlink:title=" ">
<path fill="none" stroke="#63b8ff" d="M53.17,-86C61.11,-86 70.2,-86 79.4,-86"/>
<polygon fill="#63b8ff" stroke="#63b8ff" points="79.1,-89.5 89.1,-86 79.1,-82.5 79.1,-89.5"/>
</a>
</g>
</g>
<!-- Node5 -->
<g id="Node000005" class="node">
<title>Node5</title>
<g id="a_Node000005"><a xlink:href="render_8cpp.html#af9081a72d30b09c241d02808e132435b" target="_top" xlink:title=" ">
<polygon fill="white" stroke="#666666" points="171.88,-58 104.88,-58 104.88,-38 171.88,-38 171.88,-58"/>
<text xml:space="preserve" text-anchor="middle" x="138.38" y="-44.5" font-family="Helvetica,sans-Serif" font-size="10.00">renderMenu</text>
</a>
</g>
</g>
<!-- Node1&#45;&gt;Node5 -->
<g id="edge4_Node000001_Node000005" class="edge">
<title>Node1&#45;&gt;Node5</title>
<g id="a_edge4_Node000001_Node000005"><a xlink:title=" ">
<path fill="none" stroke="#63b8ff" d="M53.17,-77.09C66.02,-72.65 81.87,-67.17 96.34,-62.18"/>
<polygon fill="#63b8ff" stroke="#63b8ff" points="97.32,-65.54 105.63,-58.97 95.04,-58.92 97.32,-65.54"/>
</a>
</g>
</g>
<!-- Node6 -->
<g id="Node000006" class="node">
<title>Node6</title>
<g id="a_Node000006"><a xlink:href="render_8cpp.html#a3c10aa4ad4862818217d336f13e678d1" target="_top" xlink:title=" ">
<polygon fill="white" stroke="#666666" points="188,-20 88.75,-20 88.75,0 188,0 188,-20"/>
<text xml:space="preserve" text-anchor="middle" x="138.38" y="-6.5" font-family="Helvetica,sans-Serif" font-size="10.00">renderStatusPages</text>
</a>
</g>
</g>
<!-- Node1&#45;&gt;Node6 -->
<g id="edge5_Node000001_Node000006" class="edge">
<title>Node1&#45;&gt;Node6</title>
<g id="a_edge5_Node000001_Node000006"><a xlink:title=" ">
<path fill="none" stroke="#63b8ff" d="M36.02,-75.91C47.14,-63.46 67.56,-42.3 88.75,-29 90.76,-27.74 92.87,-26.54 95.03,-25.4"/>
<polygon fill="#63b8ff" stroke="#63b8ff" points="96.49,-28.58 104.04,-21.14 93.5,-22.25 96.49,-28.58"/>
</a>
</g>
</g>
</g>
</svg>
