<?xml version="1.0" encoding="UTF-8" standalone="no"?>
<!DOCTYPE svg PUBLIC "-//W3C//DTD SVG 1.1//EN"
 "http://www.w3.org/Graphics/SVG/1.1/DTD/svg11.dtd">
<!-- Generated by graphviz version 14.1.2 (20260124.0452)
 -->
<!-- Title: render.cpp Pages: 1 -->
<svg width="184pt" height="196pt"
 viewBox="0.00 0.00 184.00 196.00" xmlns="http://www.w3.org/2000/svg" xmlns:xlink="http://www.w3.org/1999/xlink">
<g id="graph0" class="graph" transform="scale(1 1) rotate(0) translate(4 192)">
<title>render.cpp</title>
<!-- Node1 -->
<g id="Node000001" class="node">
<title>Node1</title>
<g id="a_Node000001"><a xlink:title=" ">
<polygon fill="#999999" stroke="#666666" points="107.25,-188 45.5,-188 45.5,-168 107.25,-168 107.25,-188"/>
<text xml:space="preserve" text-anchor="middle" x="76.38" y="-174.5" font-family="Helvetica,sans-Serif" font-size="10.00">render.cpp</text>
</a>
</g>
</g>
<!-- Node2 -->
<g id="Node000002" class="node">
<title>Node2</title>
<g id="a_Node000002"><a xlink:href="render_8h.html" target="_top" xlink:title=" ">
<polygon fill="white" stroke="#666666" points="55,-132 3.75,-132 3.75,-112 55,-112 55,-132"/>
<text xml:space="preserve" text-anchor="middle" x="29.38" y="-118.5" font-family="Helvetica,sans-Serif" font-size="10.00">render.h</text>
</a>
</g>
</g>
<!-- Node1&#45;&gt;Node2 -->
<g id="edge1_Node000001_Node000002" class="edge">
<title>Node1&#45;&gt;Node2</title>
<g id="a_edge1_Node000001_Node000002"><a xlink:title=" ">
<path fill="none" stroke="#63b8ff" d="M68.19,-167.59C61.79,-160.24 52.7,-149.8 44.92,-140.87"/>
<polygon fill="#63b8ff" stroke="#63b8ff" points="47.67,-138.69 38.46,-133.44 42.39,-143.28 47.67,-138.69"/>
</a>
</g>
</g>
<!-- Node5 -->
<g id="Node000005" class="node">
<title>Node5</title>
<g id="a_Node000005"><a xlink:title=" ">
<polygon fill="#e0e0e0" stroke="#999999" points="175.5,-132 73.25,-132 73.25,-112 175.5,-112 175.5,-132"/>
<text xml:space="preserve" text-anchor="middle" x="124.38" y="-118.5" font-family="Helvetica,sans-Serif" font-size="10.00">LiquidCrystal_I2C.h</text>
</a>
</g>
</g>
<!-- Node1&#45;&gt;Node5 -->
<g id="edge4_Node000001_Node000005" class="edge">
<title>Node1&#45;&gt;Node5</title>
<g id="a_edge4_Node000001_Node000005"><a xlink:title=" ">
<path fill="none" stroke="#63b8ff" d="M84.74,-167.59C91.27,-160.24 100.56,-149.8 108.49,-140.87"/>
<polygon fill="#63b8ff" stroke="#63b8ff" points="111.08,-143.23 115.1,-133.43 105.84,-138.58 111.08,-143.23"/>
</a>
</g>
</g>
<!-- Node3 -->
<g id="Node000003" class="node">
<title>Node3</title>
<g id="a_Node000003"><a xlink:href="ui__state_8h.html" target="_top" xlink:title="UI state machine definitions for the Smart Garage Controller.">
<polygon fill="white" stroke="#666666" points="58.75,-76 0,-76 0,-56 58.75,-56 58.75,-76"/>
<text xml:space="preserve" text-anchor="middle" x="29.38" y="-62.5" font-family="Helvetica,sans-Serif" font-size="10.00">ui_state.h</text>
</a>
</g>
</g>
<!-- Node2&#45;&gt;Node3 -->
<g id="edge2_Node000002_Node000003" class="edge">
<title>Node2&#45;&gt;Node3</title>
<g id="a_edge2_Node000002_Node000003"><a xlink:title=" ">
<path fill="none" stroke="#63b8ff" d="M29.38,-111.59C29.38,-105.01 29.38,-95.96 29.38,-87.73"/>
<polygon fill="#63b8ff" stroke="#63b8ff" points="32.88,-87.81 29.38,-77.81 25.88,-87.81 32.88,-87.81"/>
</a>
</g>
</g>
<!-- Node4 -->
<g id="Node000004" class="node">
<title>Node4</title>
<g id="a_Node000004"><a xlink:title=" ">
<polygon fill="#e0e0e0" stroke="#999999" points="53.5,-20 5.25,-20 5.25,0 53.5,0 53.5,-20"/>
<text xml:space="preserve" text-anchor="middle" x="29.38" y="-6.5" font-family="Helvetica,sans-Serif" font-size="10.00">stdint.h</text>
</a>
</g>
</g>
<!-- Node3&#45;&gt;Node4 -->
<g id="edge3_Node000003_Node000004" class="edge">
<title>Node3&#45;&gt;Node4</title>
<g id="a_edge3_Node000003_Node000004"><a xlink:title=" ">
<path fill="none" stroke="#63b8ff" d="M29.38,-55.59C29.38,-49.01 29.38,-39.96 29.38,-31.73"/>
<polygon fill="#63b8ff" stroke="#63b8ff" points="32.88,-31.81 29.38,-21.81 25.88,-31.81 32.88,-31.81"/>
</a>
</g>
</g>
</g>
</svg>
