<?xml version="1.0" encoding="UTF-8" standalone="no"?>
<!DOCTYPE svg PUBLIC "-//W3C//DTD SVG 1.1//EN"
 "http://www.w3.org/Graphics/SVG/1.1/DTD/svg11.dtd">
<!-- Generated by graphviz version 14.1.2 (20260124.0452)
 -->
<!-- Title: sensors.h Pages: 1 -->
<svg width="366pt" height="140pt"
 viewBox="0.00 0.00 366.00 140.00" xmlns="http://www.w3.org/2000/svg" xmlns:xlink="http://www.w3.org/1999/xlink">

<svg id="main" version="1.1" xmlns="http://www.w3.org/2000/svg" xmlns:xlink="http://www.w3.org/1999/xlink" xml:space="preserve">

<style type="text/css"><![CDATA[
.node, .edge {opacity: 0.7;}
.node.selected, .edge.selected {opacity: 1;}
.edge:hover path { stroke: red; }
.edge:hover polygon { stroke: red; fill: red; }
]]></style>
<script type="application/ecmascript" xlink:href="svg.min.js"/>
<svg id="graph" class="graph">
<g id="graph0" class="graph" transform="scale(1 1) rotate(0) translate(4 136)">
<title>sensors.h</title>
<!-- Node1 -->
<g id="Node000001" class="node">
<title>Node1</title>
<g id="a_Node000001"><a xlink:title="Sensor subsystem interface for the Smart Garage Controller.">
<polygon fill="#999999" stroke="#666666" points="270.5,-132 211.75,-132 211.75,-112 270.5,-112 270.5,-132"/>
<text xml:space="preserve" text-anchor="middle" x="241.12" y="-118.5" font-family="Helvetica,sans-Serif" font-size="10.00">sensors.h</text>
</a>
</g>
</g>
<!-- Node2 -->
<g id="Node000002" class="node">
<title>Node2</title>
<g id="a_Node000002"><a xlink:href="control_8h.html" target="_top" xlink:title="Control Logic subsystem interface for the Smart Garage Controller.">
<polygon fill="white" stroke="#666666" points="193.88,-76 140.38,-76 140.38,-56 193.88,-56 193.88,-76"/>
<text xml:space="preserve" text-anchor="middle" x="167.12" y="-62.5" font-family="Helvetica,sans-Serif" font-size="10.00">control.h</text>
</a>
</g>
</g>
<!-- Node1&#45;&gt;Node2 -->
<g id="edge1_Node000001_Node000002" class="edge">
<title>Node1&#45;&gt;Node2</title>
<g id="a_edge1_Node000001_Node000002"><a xlink:title=" ">
<path fill="none" stroke="#63b8ff" d="M219.14,-104.95C206.34,-95.61 190.65,-84.16 179.87,-76.3"/>
<polygon fill="#63b8ff" stroke="#63b8ff" points="216.87,-107.63 227.01,-110.7 221,-101.98 216.87,-107.63"/>
</a>
</g>
</g>
<!-- Node5 -->
<g id="Node000005" class="node">
<title>Node5</title>
<g id="a_Node000005"><a xlink:href="menu_8cpp.html" target="_top" xlink:title=" ">
<polygon fill="white" stroke="#666666" points="224.5,-20 165.75,-20 165.75,0 224.5,0 224.5,-20"/>
<text xml:space="preserve" text-anchor="middle" x="195.12" y="-6.5" font-family="Helvetica,sans-Serif" font-size="10.00">menu.cpp</text>
</a>
</g>
</g>
<!-- Node1&#45;&gt;Node5 -->
<g id="edge6_Node000001_Node000005" class="edge">
<title>Node1&#45;&gt;Node5</title>
<g id="a_edge6_Node000001_Node000005"><a xlink:title=" ">
<path fill="none" stroke="#63b8ff" d="M232.89,-101.3C222.9,-77.43 206.5,-38.2 199.04,-20.35"/>
<polygon fill="#63b8ff" stroke="#63b8ff" points="229.53,-102.35 236.62,-110.23 235.99,-99.65 229.53,-102.35"/>
</a>
</g>
</g>
<!-- Node6 -->
<g id="Node000006" class="node">
<title>Node6</title>
<g id="a_Node000006"><a xlink:href="menu__callbacks_8cpp.html" target="_top" xlink:title="Menu action handlers for the Smart Garage Controller UI.">
<polygon fill="white" stroke="#666666" points="347.75,-20 242.5,-20 242.5,0 347.75,0 347.75,-20"/>
<text xml:space="preserve" text-anchor="middle" x="295.12" y="-6.5" font-family="Helvetica,sans-Serif" font-size="10.00">menu_callbacks.cpp</text>
</a>
</g>
</g>
<!-- Node1&#45;&gt;Node6 -->
<g id="edge7_Node000001_Node000006" class="edge">
<title>Node1&#45;&gt;Node6</title>
<g id="a_edge7_Node000001_Node000006"><a xlink:title=" ">
<path fill="none" stroke="#63b8ff" d="M250.8,-101.3C262.52,-77.43 281.77,-38.2 290.53,-20.35"/>
<polygon fill="#63b8ff" stroke="#63b8ff" points="247.66,-99.74 246.4,-110.26 253.94,-102.83 247.66,-99.74"/>
</a>
</g>
</g>
<!-- Node7 -->
<g id="Node000007" class="node">
<title>Node7</title>
<g id="a_Node000007"><a xlink:href="sensors_8cpp.html" target="_top" xlink:title="Implementation of the Sensors subsystem.">
<polygon fill="white" stroke="#666666" points="357.75,-76 288.5,-76 288.5,-56 357.75,-56 357.75,-76"/>
<text xml:space="preserve" text-anchor="middle" x="323.12" y="-62.5" font-family="Helvetica,sans-Serif" font-size="10.00">sensors.cpp</text>
</a>
</g>
</g>
<!-- Node1&#45;&gt;Node7 -->
<g id="edge8_Node000001_Node000007" class="edge">
<title>Node1&#45;&gt;Node7</title>
<g id="a_edge8_Node000001_Node000007"><a xlink:title=" ">
<path fill="none" stroke="#63b8ff" d="M265.01,-105.27C279.17,-95.94 296.66,-84.43 308.73,-76.48"/>
<polygon fill="#63b8ff" stroke="#63b8ff" points="263.1,-102.34 256.67,-110.76 266.95,-108.18 263.1,-102.34"/>
</a>
</g>
</g>
<!-- Node3 -->
<g id="Node000003" class="node">
<title>Node3</title>
<g id="a_Node000003"><a xlink:href="actions_8cpp.html" target="_top" xlink:title=" ">
<polygon fill="white" stroke="#666666" points="66.25,-20 0,-20 0,0 66.25,0 66.25,-20"/>
<text xml:space="preserve" text-anchor="middle" x="33.12" y="-6.5" font-family="Helvetica,sans-Serif" font-size="10.00">actions.cpp</text>
</a>
</g>
</g>
<!-- Node2&#45;&gt;Node3 -->
<g id="edge2_Node000002_Node000003" class="edge">
<title>Node2&#45;&gt;Node3</title>
<g id="a_edge2_Node000002_Node000003"><a xlink:title=" ">
<path fill="none" stroke="#63b8ff" d="M133.38,-51.4C109.44,-41.75 77.91,-29.05 56.65,-20.48"/>
<polygon fill="#63b8ff" stroke="#63b8ff" points="131.8,-54.54 142.38,-55.03 134.41,-48.04 131.8,-54.54"/>
</a>
</g>
</g>
<!-- Node4 -->
<g id="Node000004" class="node">
<title>Node4</title>
<g id="a_Node000004"><a xlink:href="control_8cpp.html" target="_top" xlink:title="Implementation of the Control Logic subsystem.">
<polygon fill="white" stroke="#666666" points="148.12,-20 84.12,-20 84.12,0 148.12,0 148.12,-20"/>
<text xml:space="preserve" text-anchor="middle" x="116.12" y="-6.5" font-family="Helvetica,sans-Serif" font-size="10.00">control.cpp</text>
</a>
</g>
</g>
<!-- Node2&#45;&gt;Node4 -->
<g id="edge3_Node000002_Node000004" class="edge">
<title>Node2&#45;&gt;Node4</title>
<g id="a_edge3_Node000002_Node000004"><a xlink:title=" ">
<path fill="none" stroke="#63b8ff" d="M150.39,-47.29C141.89,-38.28 131.9,-27.7 124.91,-20.3"/>
<polygon fill="#63b8ff" stroke="#63b8ff" points="147.79,-49.63 157.2,-54.49 152.88,-44.82 147.79,-49.63"/>
</a>
</g>
</g>
<!-- Node2&#45;&gt;Node5 -->
<g id="edge4_Node000002_Node000005" class="edge">
<title>Node2&#45;&gt;Node5</title>
<g id="a_edge4_Node000002_Node000005"><a xlink:title=" ">
<path fill="none" stroke="#63b8ff" d="M177.19,-45.58C181.66,-36.97 186.71,-27.24 190.3,-20.3"/>
<polygon fill="#63b8ff" stroke="#63b8ff" points="174.2,-43.76 172.7,-54.25 180.41,-46.98 174.2,-43.76"/>
</a>
</g>
</g>
<!-- Node2&#45;&gt;Node6 -->
<g id="edge5_Node000002_Node000006" class="edge">
<title>Node2&#45;&gt;Node6</title>
<g id="a_edge5_Node000002_Node000006"><a xlink:title=" ">
<path fill="none" stroke="#63b8ff" d="M199.98,-51.14C222.77,-41.52 252.53,-28.97 272.66,-20.48"/>
<polygon fill="#63b8ff" stroke="#63b8ff" points="198.67,-47.89 190.82,-55.01 201.39,-54.34 198.67,-47.89"/>
</a>
</g>
</g>
</g>
</svg>
</svg>

<style type='text/css'>
<![CDATA[
[data-mouse-over-selected='false'] { opacity: 0.7; }
[data-mouse-over-selected='true']  { opacity: 1.0; }
]]>
</style>
<script type="application/ecmascript"><![CDATA[
document.addEventListener('DOMContentLoaded', (event) => {
  highlightEdges();
  highlightAdjacentNodes();
});
]]></script>
</svg>
