<?xml version="1.0" encoding="UTF-8" standalone="no"?>
<!DOCTYPE svg PUBLIC "-//W3C//DTD SVG 1.1//EN"
 "http://www.w3.org/Graphics/SVG/1.1/DTD/svg11.dtd">
<!-- Generated by graphviz version 14.1.2 (20260124.0452)
 -->
<!-- Title: ui.cpp Pages: 1 -->
<svg width="195pt" height="196pt"
 viewBox="0.00 0.00 195.00 196.00" xmlns="http://www.w3.org/2000/svg" xmlns:xlink="http://www.w3.org/1999/xlink">

<svg id="main" version="1.1" xmlns="http://www.w3.org/2000/svg" xmlns:xlink="http://www.w3.org/1999/xlink" xml:space="preserve">

<style type="text/css"><![CDATA[
.node, .edge {opacity: 0.7;}
.node.selected, .edge.selected {opacity: 1;}
.edge:hover path { stroke: red; }
.edge:hover polygon { stroke: red; fill: red; }
]]></style>
<script type="application/ecmascript" xlink:href="svg.min.js"/>
<svg id="graph" class="graph">
<g id="graph0" class="graph" transform="scale(1 1) rotate(0) translate(4 192)">
<title>ui.cpp</title>
<!-- Node1 -->
<g id="Node000001" class="node">
<title>Node1</title>
<g id="a_Node000001"><a xlink:title=" ">
<polygon fill="#999999" stroke="#666666" points="108,-188 65.75,-188 65.75,-168 108,-168 108,-188"/>
<text xml:space="preserve" text-anchor="middle" x="86.88" y="-174.5" font-family="Helvetica,sans-Serif" font-size="10.00">ui.cpp</text>
</a>
</g>
</g>
<!-- Node2 -->
<g id="Node000002" class="node">
<title>Node2</title>
<g id="a_Node000002"><a xlink:href="ui_8h.html" target="_top" xlink:title="Public interface for the User Interface (UI) subsystem.">
<polygon fill="white" stroke="#666666" points="31.75,-132 0,-132 0,-112 31.75,-112 31.75,-132"/>
<text xml:space="preserve" text-anchor="middle" x="15.88" y="-118.5" font-family="Helvetica,sans-Serif" font-size="10.00">ui.h</text>
</a>
</g>
</g>
<!-- Node1&#45;&gt;Node2 -->
<g id="edge1_Node000001_Node000002" class="edge">
<title>Node1&#45;&gt;Node2</title>
<g id="a_edge1_Node000001_Node000002"><a xlink:title=" ">
<path fill="none" stroke="#63b8ff" d="M74.51,-167.59C64.23,-159.77 49.36,-148.46 37.16,-139.19"/>
<polygon fill="#63b8ff" stroke="#63b8ff" points="39.38,-136.48 29.31,-133.21 35.15,-142.05 39.38,-136.48"/>
</a>
</g>
</g>
<!-- Node4 -->
<g id="Node000004" class="node">
<title>Node4</title>
<g id="a_Node000004"><a xlink:href="ui__state_8h.html" target="_top" xlink:title="UI state machine definitions for the Smart Garage Controller.">
<polygon fill="white" stroke="#666666" points="120.25,-76 61.5,-76 61.5,-56 120.25,-56 120.25,-76"/>
<text xml:space="preserve" text-anchor="middle" x="90.88" y="-62.5" font-family="Helvetica,sans-Serif" font-size="10.00">ui_state.h</text>
</a>
</g>
</g>
<!-- Node1&#45;&gt;Node4 -->
<g id="edge3_Node000001_Node000004" class="edge">
<title>Node1&#45;&gt;Node4</title>
<g id="a_edge3_Node000001_Node000004"><a xlink:title=" ">
<path fill="none" stroke="#63b8ff" d="M84.26,-167.74C81.03,-155.12 76.27,-131.84 78.88,-112 79.96,-103.69 82.14,-94.73 84.34,-87.01"/>
<polygon fill="#63b8ff" stroke="#63b8ff" points="87.64,-88.2 87.23,-77.61 80.95,-86.14 87.64,-88.2"/>
</a>
</g>
</g>
<!-- Node5 -->
<g id="Node000005" class="node">
<title>Node5</title>
<g id="a_Node000005"><a xlink:href="render_8h.html" target="_top" xlink:title=" ">
<polygon fill="white" stroke="#666666" points="139.5,-132 88.25,-132 88.25,-112 139.5,-112 139.5,-132"/>
<text xml:space="preserve" text-anchor="middle" x="113.88" y="-118.5" font-family="Helvetica,sans-Serif" font-size="10.00">render.h</text>
</a>
</g>
</g>
<!-- Node1&#45;&gt;Node5 -->
<g id="edge5_Node000001_Node000005" class="edge">
<title>Node1&#45;&gt;Node5</title>
<g id="a_edge5_Node000001_Node000005"><a xlink:title=" ">
<path fill="none" stroke="#63b8ff" d="M91.58,-167.59C95.02,-160.7 99.82,-151.1 104.09,-142.57"/>
<polygon fill="#63b8ff" stroke="#63b8ff" points="107.21,-144.16 108.55,-133.65 100.95,-141.03 107.21,-144.16"/>
</a>
</g>
</g>
<!-- Node6 -->
<g id="Node000006" class="node">
<title>Node6</title>
<g id="a_Node000006"><a xlink:href="input_8h.html" target="_top" xlink:title=" ">
<polygon fill="white" stroke="#666666" points="186.5,-76 141.25,-76 141.25,-56 186.5,-56 186.5,-76"/>
<text xml:space="preserve" text-anchor="middle" x="163.88" y="-62.5" font-family="Helvetica,sans-Serif" font-size="10.00">input.h</text>
</a>
</g>
</g>
<!-- Node1&#45;&gt;Node6 -->
<g id="edge7_Node000001_Node000006" class="edge">
<title>Node1&#45;&gt;Node6</title>
<g id="a_edge7_Node000001_Node000006"><a xlink:title=" ">
<path fill="none" stroke="#63b8ff" d="M106.61,-167.54C120.51,-159.87 138.45,-147.75 148.88,-132 157.69,-118.69 161.36,-100.88 162.87,-87.26"/>
<polygon fill="#63b8ff" stroke="#63b8ff" points="166.33,-87.94 163.62,-77.7 159.35,-87.39 166.33,-87.94"/>
</a>
</g>
</g>
<!-- Node3 -->
<g id="Node000003" class="node">
<title>Node3</title>
<g id="a_Node000003"><a xlink:title=" ">
<polygon fill="#e0e0e0" stroke="#999999" points="115,-20 66.75,-20 66.75,0 115,0 115,-20"/>
<text xml:space="preserve" text-anchor="middle" x="90.88" y="-6.5" font-family="Helvetica,sans-Serif" font-size="10.00">stdint.h</text>
</a>
</g>
</g>
<!-- Node2&#45;&gt;Node3 -->
<g id="edge2_Node000002_Node000003" class="edge">
<title>Node2&#45;&gt;Node3</title>
<g id="a_edge2_Node000002_Node000003"><a xlink:title=" ">
<path fill="none" stroke="#63b8ff" d="M20.4,-111.85C26.93,-98.97 39.65,-74.95 52.88,-56 59.44,-46.6 67.54,-36.8 74.58,-28.76"/>
<polygon fill="#63b8ff" stroke="#63b8ff" points="77.12,-31.16 81.18,-21.38 71.9,-26.49 77.12,-31.16"/>
</a>
</g>
</g>
<!-- Node4&#45;&gt;Node3 -->
<g id="edge4_Node000004_Node000003" class="edge">
<title>Node4&#45;&gt;Node3</title>
<g id="a_edge4_Node000004_Node000003"><a xlink:title=" ">
<path fill="none" stroke="#63b8ff" d="M90.88,-55.59C90.88,-49.01 90.88,-39.96 90.88,-31.73"/>
<polygon fill="#63b8ff" stroke="#63b8ff" points="94.38,-31.81 90.88,-21.81 87.38,-31.81 94.38,-31.81"/>
</a>
</g>
</g>
<!-- Node5&#45;&gt;Node4 -->
<g id="edge6_Node000005_Node000004" class="edge">
<title>Node5&#45;&gt;Node4</title>
<g id="a_edge6_Node000005_Node000004"><a xlink:title=" ">
<path fill="none" stroke="#63b8ff" d="M109.87,-111.59C106.97,-104.78 102.94,-95.32 99.33,-86.86"/>
<polygon fill="#63b8ff" stroke="#63b8ff" points="102.57,-85.52 95.43,-77.69 96.13,-88.26 102.57,-85.52"/>
</a>
</g>
</g>
<!-- Node6&#45;&gt;Node3 -->
<g id="edge8_Node000006_Node000003" class="edge">
<title>Node6&#45;&gt;Node3</title>
<g id="a_edge8_Node000006_Node000003"><a xlink:title=" ">
<path fill="none" stroke="#63b8ff" d="M151.16,-55.59C140.48,-47.7 125,-36.24 112.39,-26.92"/>
<polygon fill="#63b8ff" stroke="#63b8ff" points="114.78,-24.33 104.66,-21.2 110.62,-29.96 114.78,-24.33"/>
</a>
</g>
</g>
</g>
</svg>
</svg>

<style type='text/css'>
<![CDATA[
[data-mouse-over-selected='false'] { opacity: 0.7; }
[data-mouse-over-selected='true']  { opacity: 1.0; }
]]>
</style>
<script type="application/ecmascript"><![CDATA[
document.addEventListener('DOMContentLoaded', (event) => {
  highlightEdges();
  highlightAdjacentNodes();
});
]]></script>
</svg>
