<?xml version="1.0" encoding="UTF-8" standalone="no"?>
<!DOCTYPE svg PUBLIC "-//W3C//DTD SVG 1.1//EN"
 "http://www.w3.org/Graphics/SVG/1.1/DTD/svg11.dtd">
<!-- Generated by graphviz version 14.1.2 (20260124.0452)
 -->
<!-- Title: ui_state.cpp Pages: 1 -->
<svg width="192pt" height="140pt"
 viewBox="0.00 0.00 192.00 140.00" xmlns="http://www.w3.org/2000/svg" xmlns:xlink="http://www.w3.org/1999/xlink">
<g id="graph0" class="graph" transform="scale(1 1) rotate(0) translate(4 136)">
<title>ui_state.cpp</title>
<!-- Node1 -->
<g id="Node000001" class="node">
<title>Node1</title>
<g id="a_Node000001"><a xlink:title="Implementation of the UI state machine for the Smart Garage Controller.">
<polygon fill="#999999" stroke="#666666" points="127,-132 57.75,-132 57.75,-112 127,-112 127,-132"/>
<text xml:space="preserve" text-anchor="middle" x="92.38" y="-118.5" font-family="Helvetica,sans-Serif" font-size="10.00">ui_state.cpp</text>
</a>
</g>
</g>
<!-- Node2 -->
<g id="Node000002" class="node">
<title>Node2</title>
<g id="a_Node000002"><a xlink:href="ui__state_8h.html" target="_top" xlink:title="UI state machine definitions for the Smart Garage Controller.">
<polygon fill="white" stroke="#666666" points="58.75,-76 0,-76 0,-56 58.75,-56 58.75,-76"/>
<text xml:space="preserve" text-anchor="middle" x="29.38" y="-62.5" font-family="Helvetica,sans-Serif" font-size="10.00">ui_state.h</text>
</a>
</g>
</g>
<!-- Node1&#45;&gt;Node2 -->
<g id="edge1_Node000001_Node000002" class="edge">
<title>Node1&#45;&gt;Node2</title>
<g id="a_edge1_Node000001_Node000002"><a xlink:title=" ">
<path fill="none" stroke="#63b8ff" d="M81.4,-111.59C72.46,-103.93 59.6,-92.91 48.91,-83.75"/>
<polygon fill="#63b8ff" stroke="#63b8ff" points="51.24,-81.13 41.37,-77.28 46.69,-86.45 51.24,-81.13"/>
</a>
</g>
</g>
<!-- Node4 -->
<g id="Node000004" class="node">
<title>Node4</title>
<g id="a_Node000004"><a xlink:href="ui_8h.html" target="_top" xlink:title="Public interface for the User Interface (UI) subsystem.">
<polygon fill="white" stroke="#666666" points="108.25,-76 76.5,-76 76.5,-56 108.25,-56 108.25,-76"/>
<text xml:space="preserve" text-anchor="middle" x="92.38" y="-62.5" font-family="Helvetica,sans-Serif" font-size="10.00">ui.h</text>
</a>
</g>
</g>
<!-- Node1&#45;&gt;Node4 -->
<g id="edge3_Node000001_Node000004" class="edge">
<title>Node1&#45;&gt;Node4</title>
<g id="a_edge3_Node000001_Node000004"><a xlink:title=" ">
<path fill="none" stroke="#63b8ff" d="M92.38,-111.59C92.38,-105.01 92.38,-95.96 92.38,-87.73"/>
<polygon fill="#63b8ff" stroke="#63b8ff" points="95.88,-87.81 92.38,-77.81 88.88,-87.81 95.88,-87.81"/>
</a>
</g>
</g>
<!-- Node5 -->
<g id="Node000005" class="node">
<title>Node5</title>
<g id="a_Node000005"><a xlink:title=" ">
<polygon fill="#e0e0e0" stroke="#999999" points="184,-76 126.75,-76 126.75,-56 184,-56 184,-76"/>
<text xml:space="preserve" text-anchor="middle" x="155.38" y="-62.5" font-family="Helvetica,sans-Serif" font-size="10.00">Arduino.h</text>
</a>
</g>
</g>
<!-- Node1&#45;&gt;Node5 -->
<g id="edge5_Node000001_Node000005" class="edge">
<title>Node1&#45;&gt;Node5</title>
<g id="a_edge5_Node000001_Node000005"><a xlink:title=" ">
<path fill="none" stroke="#63b8ff" d="M103.35,-111.59C112.29,-103.93 125.15,-92.91 135.84,-83.75"/>
<polygon fill="#63b8ff" stroke="#63b8ff" points="138.06,-86.45 143.38,-77.28 133.51,-81.13 138.06,-86.45"/>
</a>
</g>
</g>
<!-- Node3 -->
<g id="Node000003" class="node">
<title>Node3</title>
<g id="a_Node000003"><a xlink:title=" ">
<polygon fill="#e0e0e0" stroke="#999999" points="84.5,-20 36.25,-20 36.25,0 84.5,0 84.5,-20"/>
<text xml:space="preserve" text-anchor="middle" x="60.38" y="-6.5" font-family="Helvetica,sans-Serif" font-size="10.00">stdint.h</text>
</a>
</g>
</g>
<!-- Node2&#45;&gt;Node3 -->
<g id="edge2_Node000002_Node000003" class="edge">
<title>Node2&#45;&gt;Node3</title>
<g id="a_edge2_Node000002_Node000003"><a xlink:title=" ">
<path fill="none" stroke="#63b8ff" d="M34.77,-55.59C38.82,-48.55 44.49,-38.67 49.47,-30"/>
<polygon fill="#63b8ff" stroke="#63b8ff" points="52.34,-32.03 54.28,-21.61 46.27,-28.54 52.34,-32.03"/>
</a>
</g>
</g>
<!-- Node4&#45;&gt;Node3 -->
<g id="edge4_Node000004_Node000003" class="edge">
<title>Node4&#45;&gt;Node3</title>
<g id="a_edge4_Node000004_Node000003"><a xlink:title=" ">
<path fill="none" stroke="#63b8ff" d="M86.8,-55.59C82.63,-48.55 76.77,-38.67 71.63,-30"/>
<polygon fill="#63b8ff" stroke="#63b8ff" points="74.77,-28.42 66.66,-21.6 68.74,-31.99 74.77,-28.42"/>
</a>
</g>
</g>
</g>
</svg>
