<?xml version="1.0" encoding="UTF-8" standalone="no"?>
<!DOCTYPE svg PUBLIC "-//W3C//DTD SVG 1.1//EN"
 "http://www.w3.org/Graphics/SVG/1.1/DTD/svg11.dtd">
<!-- Generated by graphviz version 14.1.2 (20260124.0452)
 -->
<!-- Title: ui_state.h Pages: 1 -->
<svg width="385pt" height="140pt"
 viewBox="0.00 0.00 385.00 140.00" xmlns="http://www.w3.org/2000/svg" xmlns:xlink="http://www.w3.org/1999/xlink">
<g id="graph0" class="graph" transform="scale(1 1) rotate(0) translate(4 136)">
<title>ui_state.h</title>
<!-- Node1 -->
<g id="Node000001" class="node">
<title>Node1</title>
<g id="a_Node000001"><a xlink:title="UI state machine definitions for the Smart Garage Controller.">
<polygon fill="#999999" stroke="#666666" points="254.75,-132 196,-132 196,-112 254.75,-112 254.75,-132"/>
<text xml:space="preserve" text-anchor="middle" x="225.38" y="-118.5" font-family="Helvetica,sans-Serif" font-size="10.00">ui_state.h</text>
</a>
</g>
</g>
<!-- Node2 -->
<g id="Node000002" class="node">
<title>Node2</title>
<g id="a_Node000002"><a xlink:href="menu_8cpp.html" target="_top" xlink:title=" ">
<polygon fill="white" stroke="#666666" points="58.75,-76 0,-76 0,-56 58.75,-56 58.75,-76"/>
<text xml:space="preserve" text-anchor="middle" x="29.38" y="-62.5" font-family="Helvetica,sans-Serif" font-size="10.00">menu.cpp</text>
</a>
</g>
</g>
<!-- Node1&#45;&gt;Node2 -->
<g id="edge1_Node000001_Node000002" class="edge">
<title>Node1&#45;&gt;Node2</title>
<g id="a_edge1_Node000001_Node000002"><a xlink:title=" ">
<path fill="none" stroke="#63b8ff" d="M184.58,-109.76C147.14,-99.45 92.57,-84.41 59.1,-75.19"/>
<polygon fill="#63b8ff" stroke="#63b8ff" points="183.58,-113.11 194.15,-112.4 185.44,-106.37 183.58,-113.11"/>
</a>
</g>
</g>
<!-- Node3 -->
<g id="Node000003" class="node">
<title>Node3</title>
<g id="a_Node000003"><a xlink:href="menu__callbacks_8cpp.html" target="_top" xlink:title="Menu action handlers for the Smart Garage Controller UI.">
<polygon fill="white" stroke="#666666" points="182,-76 76.75,-76 76.75,-56 182,-56 182,-76"/>
<text xml:space="preserve" text-anchor="middle" x="129.38" y="-62.5" font-family="Helvetica,sans-Serif" font-size="10.00">menu_callbacks.cpp</text>
</a>
</g>
</g>
<!-- Node1&#45;&gt;Node3 -->
<g id="edge2_Node000001_Node000003" class="edge">
<title>Node1&#45;&gt;Node3</title>
<g id="a_edge2_Node000001_Node000003"><a xlink:title=" ">
<path fill="none" stroke="#63b8ff" d="M198.85,-106.08C182.03,-96.62 160.77,-84.66 146.23,-76.48"/>
<polygon fill="#63b8ff" stroke="#63b8ff" points="196.9,-109 207.33,-110.85 200.33,-102.9 196.9,-109"/>
</a>
</g>
</g>
<!-- Node4 -->
<g id="Node000004" class="node">
<title>Node4</title>
<g id="a_Node000004"><a xlink:href="render_8h.html" target="_top" xlink:title=" ">
<polygon fill="white" stroke="#666666" points="251,-76 199.75,-76 199.75,-56 251,-56 251,-76"/>
<text xml:space="preserve" text-anchor="middle" x="225.38" y="-62.5" font-family="Helvetica,sans-Serif" font-size="10.00">render.h</text>
</a>
</g>
</g>
<!-- Node1&#45;&gt;Node4 -->
<g id="edge3_Node000001_Node000004" class="edge">
<title>Node1&#45;&gt;Node4</title>
<g id="a_edge3_Node000001_Node000004"><a xlink:title=" ">
<path fill="none" stroke="#63b8ff" d="M225.38,-100.13C225.38,-91.9 225.38,-82.85 225.38,-76.3"/>
<polygon fill="#63b8ff" stroke="#63b8ff" points="221.88,-100.08 225.38,-110.08 228.88,-100.08 221.88,-100.08"/>
</a>
</g>
</g>
<!-- Node6 -->
<g id="Node000006" class="node">
<title>Node6</title>
<g id="a_Node000006"><a xlink:href="ui_8cpp.html" target="_top" xlink:title=" ">
<polygon fill="white" stroke="#666666" points="300.5,-20 258.25,-20 258.25,0 300.5,0 300.5,-20"/>
<text xml:space="preserve" text-anchor="middle" x="279.38" y="-6.5" font-family="Helvetica,sans-Serif" font-size="10.00">ui.cpp</text>
</a>
</g>
</g>
<!-- Node1&#45;&gt;Node6 -->
<g id="edge6_Node000001_Node000006" class="edge">
<title>Node1&#45;&gt;Node6</title>
<g id="a_edge6_Node000001_Node000006"><a xlink:title=" ">
<path fill="none" stroke="#63b8ff" d="M241.8,-103.13C248.33,-95.27 255.44,-85.65 260.38,-76 269.9,-57.37 275.37,-33.22 277.81,-20.24"/>
<polygon fill="#63b8ff" stroke="#63b8ff" points="239.24,-100.74 235.31,-110.58 244.51,-105.34 239.24,-100.74"/>
</a>
</g>
</g>
<!-- Node7 -->
<g id="Node000007" class="node">
<title>Node7</title>
<g id="a_Node000007"><a xlink:href="ui__state_8cpp.html" target="_top" xlink:title="Implementation of the UI state machine for the Smart Garage Controller.">
<polygon fill="white" stroke="#666666" points="377,-76 307.75,-76 307.75,-56 377,-56 377,-76"/>
<text xml:space="preserve" text-anchor="middle" x="342.38" y="-62.5" font-family="Helvetica,sans-Serif" font-size="10.00">ui_state.cpp</text>
</a>
</g>
</g>
<!-- Node1&#45;&gt;Node7 -->
<g id="edge7_Node000001_Node000007" class="edge">
<title>Node1&#45;&gt;Node7</title>
<g id="a_edge7_Node000001_Node000007"><a xlink:title=" ">
<path fill="none" stroke="#63b8ff" d="M255.97,-106.88C276.73,-97.3 303.61,-84.89 321.84,-76.48"/>
<polygon fill="#63b8ff" stroke="#63b8ff" points="254.74,-103.59 247.13,-110.96 257.68,-109.95 254.74,-103.59"/>
</a>
</g>
</g>
<!-- Node5 -->
<g id="Node000005" class="node">
<title>Node5</title>
<g id="a_Node000005"><a xlink:href="render_8cpp.html" target="_top" xlink:title=" ">
<polygon fill="white" stroke="#666666" points="240.25,-20 178.5,-20 178.5,0 240.25,0 240.25,-20"/>
<text xml:space="preserve" text-anchor="middle" x="209.38" y="-6.5" font-family="Helvetica,sans-Serif" font-size="10.00">render.cpp</text>
</a>
</g>
</g>
<!-- Node4&#45;&gt;Node5 -->
<g id="edge4_Node000004_Node000005" class="edge">
<title>Node4&#45;&gt;Node5</title>
<g id="a_edge4_Node000004_Node000005"><a xlink:title=" ">
<path fill="none" stroke="#63b8ff" d="M219.36,-44.71C216.88,-36.32 214.12,-27.01 212.13,-20.3"/>
<polygon fill="#63b8ff" stroke="#63b8ff" points="215.96,-45.55 222.16,-54.14 222.67,-43.56 215.96,-45.55"/>
</a>
</g>
</g>
<!-- Node4&#45;&gt;Node6 -->
<g id="edge5_Node000004_Node000006" class="edge">
<title>Node4&#45;&gt;Node6</title>
<g id="a_edge5_Node000004_Node000006"><a xlink:title=" ">
<path fill="none" stroke="#63b8ff" d="M242.81,-47.57C251.88,-38.5 262.6,-27.78 270.08,-20.3"/>
<polygon fill="#63b8ff" stroke="#63b8ff" points="240.45,-44.98 235.85,-54.52 245.4,-49.93 240.45,-44.98"/>
</a>
</g>
</g>
</g>
</svg>
